<?xml version="1.0" encoding="UTF-8"?><svg xmlns="http://www.w3.org/2000/svg" xmlns:xlink="http://www.w3.org/1999/xlink" height="402.7" preserveAspectRatio="xMidYMid meet" version="1.0" viewBox="-3.6 -2.2 503.7 402.7" width="503.7" zoomAndPan="magnify"><g id="change1_1"><path d="M355.7,143.5l54.6-131.1c6.1-14.6,27.3-12.7,30.7,2.8l57.6,265.3c1.5,7-1.7,14.2-8,17.6 c-40.6,21.9-193.7,97.6-381.2,102.2c-6.9,0.2-13.2-4.2-15.6-10.6l-92-256.8c-5.4-14.7,11.1-27.7,24.1-19l125.1,84 c9.1,6.1,21.5,1.5,24.5-9l37.4-132.3c3.5-12.2,19-15.8,27.5-6.4l88.2,98C336.8,156.9,351.2,154.4,355.7,143.5z" fill="#FDCF71"/></g></svg>