<?xml version="1.0" encoding="UTF-8" standalone="no"?><svg xmlns="http://www.w3.org/2000/svg" xmlns:xlink="http://www.w3.org/1999/xlink" fill="#255fa2" height="432.6" preserveAspectRatio="xMidYMid meet" version="1" viewBox="-9.7 0.0 426.0 432.6" width="426" zoomAndPan="magnify"><g id="change1_1"><path d="M202.803,0C132.806,1.764,63.648,20.46,1.619,52.753c6.852,70.921,28.644,140.162,65.629,201.051 c6.552,10.896,13.584,21.504,21.048,31.789c-14.004-22.392-25.38-46.429-33.649-71.569c-14.7-44.281-20.832-91.549-18.456-138.122 C85.657,46.357,142.178,28.104,199.49,21.816c69.229-7.608,140.858,2.196,204.867,29.7C342.161,19.488,272.8,1.344,202.803,0z M404.358,51.517c-30.193-9.78-61.057-16.92-92.305-21.06c-93.961-12.72-190.599,4.152-275.86,45.445 c52.105-24.48,109.19-38.173,166.73-39.901c57.541,1.344,114.71,14.664,166.959,38.821c10.884,73.045-1.548,149.654-35.113,215.463 c-13.584,27.204-31.044,52.789-51.193,75.529c-22.968,25.98-49.729,48.685-79.273,66.769c0.996-0.552,9.168-5.076,12.948-7.236 l6.06-3.552c15.624-9.384,30.624-19.836,44.797-31.309C369.509,309.245,416.322,179.403,404.358,51.517z M352.337,213.063 c-23.088,71.689-71.269,134.606-134.102,176.103c-4.5,3.012-9.396,6.12-14.124,8.976c-58.525-33.732-107.942-82.945-142.97-140.63 C23.856,196.203,2.507,124.49,1.619,52.753c-11.28,127.922,36.528,257.608,138.422,338.141 c14.232,11.388,29.28,21.744,44.977,31.02l6.084,3.516c4.068,2.28,13.092,7.212,13.092,7.212c0.012,0,0.012-0.012,0.024-0.012 c13.884-10.308,27.204-21.276,39.756-33.013c28.2-26.352,52.645-56.725,72.265-89.941c41.497-70.381,59.125-153.566,53.641-234.856 C372.569,121.37,366.749,168.687,352.337,213.063z"/></g></svg>