<?xml version="1.0" encoding="UTF-8"?><svg xmlns="http://www.w3.org/2000/svg" xmlns:xlink="http://www.w3.org/1999/xlink" height="282.5" preserveAspectRatio="xMidYMid" version="1.1" viewBox="-13.3 -13.3 282.5 282.5" width="282.5" zoomAndPan="magnify">
 <defs>
  <linearGradient id="linearGradient-1" x1="49.973%" x2="49.973%" xlink:actuate="onLoad" xlink:show="other" xlink:type="simple" xmlns:xlink="http://www.w3.org/1999/xlink" y1="-.023552%" y2="99.99%">
   <stop offset="0" stop-color="#F9AA4B"/>
   <stop offset="1" stop-color="#F7931A"/>
  </linearGradient>
 </defs>
 <g>
  <path d="m252.17 158.95c-17.1 68.61-86.61 110.32-155.12 93.22-68.612-17.11-110.32-86.62-93.215-155.12 17.102-68.612 86.512-110.32 155.12-93.215 68.51 17.002 110.31 86.51 93.21 155.12v-0.01z" fill="url(#linearGradient-1)"/>
  <path d="m188.94 112.05c2.5-17-10.4-26.2-28.2-32.3l5.8-23.1-14-3.5-5.6 22.5c-3.7-0.9-7.5-1.8-11.3-2.6l5.6-22.6-14-3.5-5.7 23c-3.1-0.7-6.1-1.4-9-2.1v-0.1l-19.395-4.8-3.7 15s10.4 2.4 10.2 2.5c5.695 1.4 6.695 5.2 6.495 8.2l-6.595 26.3c0.4 0.1 0.895 0.2 1.495 0.5-0.5-0.1-1-0.2-1.495-0.4l-9.2 36.8c-0.7 1.7-2.5 4.3-6.4 3.3 0.1 0.2-10.2-2.5-10.2-2.5l-7 16.1 18.3 4.6c3.4 0.9 6.7 1.7 10 2.6l-5.8 23.3 13.995 3.5 5.8-23.1c3.8 1 7.6 2 11.2 2.9l-5.7 23 14 3.5 5.8-23.3c24 4.5 42 2.7 49.5-19 6.1-17.4-0.3-27.5-12.9-34.1 9.3-2.1 16.2-8.2 18-20.6zm-32.1 45c-4.3 17.4-33.7 8-43.2 5.6l7.7-30.9c9.5 2.4 40.1 7.1 35.5 25.3zm4.4-45.3c-4 15.9-28.4 7.8-36.3 5.8l7-28c7.9 2 33.4 5.7 29.3 22.2z" fill="#fff"/>
 </g>
</svg>