<?xml version="1.0" encoding="UTF-8"?>
<svg version="1.1" xmlns="http://www.w3.org/2000/svg" width="64" height="64">
<path d="M0 0 C5.52765175 0.69095647 9.77604292 1.36182459 14.9375 3 C16.06027344 3.350625 17.18304688 3.70125 18.33984375 4.0625 C21 5 21 5 22 6 C22.0927833 7.38160115 22.11747043 8.76788038 22.11352539 10.15258789 C22.11344986 11.03342545 22.11337433 11.914263 22.11329651 12.8217926 C22.10813522 13.77907761 22.10297394 14.73636261 22.09765625 15.72265625 C22.0962413 16.69786728 22.09482635 17.67307831 22.09336853 18.67784119 C22.08775133 21.80609143 22.07519593 24.93427123 22.0625 28.0625 C22.05748722 30.17773334 22.05292393 32.29296781 22.04882812 34.40820312 C22.03777631 39.60549296 22.02102146 44.80274145 22 50 C20.4133661 50.64212362 18.82597944 51.28238744 17.23828125 51.921875 C16.35438721 52.27862305 15.47049316 52.63537109 14.55981445 53.00292969 C9.53400847 54.96052546 5.49294861 56 0 56 C0 37.52 0 19.04 0 0 Z M5 25 C4.67 26.65 4.34 28.3 4 30 C5.32 30 6.64 30 8 30 C7.67 28.35 7.34 26.7 7 25 C6.34 25 5.68 25 5 25 Z " fill="#FFFFFF" transform="translate(38,4)"/>
<path d="M0 0 C0 2.31 0 4.62 0 7 C6.6 7 13.2 7 20 7 C20 8.98 20 10.96 20 13 C13.4 13 6.8 13 0 13 C0 15.31 0 17.62 0 20 C-1.1055189 19.06409496 -2.20935453 18.12620142 -3.3125 17.1875 C-3.92738281 16.66542969 -4.54226562 16.14335938 -5.17578125 15.60546875 C-6.85424679 14.12827531 -8.43882034 12.59960869 -10 11 C-8.59698853 7.81326038 -6.92234929 5.67778594 -4.4375 3.25 C-3.81746094 2.63640625 -3.19742187 2.0228125 -2.55859375 1.390625 C-1 0 -1 0 0 0 Z " fill="#FFFFFF" transform="translate(14,22)"/>
<path d="M0 0 C1.32 0 2.64 0 4 0 C4 2.64 4 5.28 4 8 C7.3 8 10.6 8 14 8 C14 9.32 14 10.64 14 12 C11.85423363 12.02685938 9.70837355 12.04633088 7.5625 12.0625 C6.36753906 12.07410156 5.17257813 12.08570313 3.94140625 12.09765625 C1 12 1 12 0 11 C-0.07226502 9.14712498 -0.0838122 7.29166122 -0.0625 5.4375 C-0.05347656 4.42558594 -0.04445313 3.41367187 -0.03515625 2.37109375 C-0.02355469 1.58863281 -0.01195313 0.80617187 0 0 Z " fill="#FFFFFF" transform="translate(20,46)"/>
<path d="M0 0 C1.79244141 0.01740234 1.79244141 0.01740234 3.62109375 0.03515625 C5.41740234 0.04869141 5.41740234 0.04869141 7.25 0.0625 C8.17683594 0.07410156 9.10367188 0.08570313 10.05859375 0.09765625 C10.05859375 1.41765625 10.05859375 2.73765625 10.05859375 4.09765625 C6.75859375 4.09765625 3.45859375 4.09765625 0.05859375 4.09765625 C0.05859375 6.73765625 0.05859375 9.37765625 0.05859375 12.09765625 C-1.26140625 12.09765625 -2.58140625 12.09765625 -3.94140625 12.09765625 C-3.96827904 10.28523573 -3.9877434 8.47270392 -4.00390625 6.66015625 C-4.01550781 5.65082031 -4.02710937 4.64148438 -4.0390625 3.6015625 C-3.89749299 -0.02827964 -3.67773118 0.12210263 0 0 Z " fill="#FFFFFF" transform="translate(23.94140625,5.90234375)"/>
</svg>
