<svg fill="#FFFFFF" xmlns="http://www.w3.org/2000/svg"  viewBox="0 0 100 100" width="100px" height="100px"><path d="M13 29.908c0 0 3.887-1.186 10.237-2.424 6.347-1.239 15.169-2.501 24.951-2.646 9.782-.142 18.638.862 25.018 1.915 6.383 1.052 10.303 2.124 10.303 2.124s-3.972.865-10.352 1.751c-6.383.885-15.162 1.819-24.856 1.96-9.694.143-18.496-.534-24.902-1.232C16.996 30.656 13 29.908 13 29.908zM13.02 52.356c0 0 16.009-4.436 35.924-5.131 19.915-.695 36.194 2.614 36.194 2.614S69.13 54.275 49.215 54.97C29.3 55.665 13.02 52.356 13.02 52.356zM14.643 74.235c0 0 16.323-4.291 36.58-4.807S88 72.369 88 72.369s-16.323 4.291-36.58 4.807C31.163 77.691 14.643 74.235 14.643 74.235z"/></svg>