<?xml version="1.0" encoding="UTF-8"?>
<svg version="1.1" xmlns="http://www.w3.org/2000/svg" width="120" height="120">
<path d="M0 0 C39.6 0 79.2 0 120 0 C120 39.6 120 79.2 120 120 C80.4 120 40.8 120 0 120 C0 80.4 0 40.8 0 0 Z " fill="#633326" transform="translate(0,0)"/>
<path d="M0 0 C19.8 0 39.6 0 60 0 C60 39.6 60 79.2 60 120 C20.4 120 -19.2 120 -60 120 C-60 108.12 -60 96.24 -60 84 C-58.02 84 -56.04 84 -54 84 C-54 83.01 -54 82.02 -54 81 C-52.02 81 -50.04 81 -48 81 C-48 80.01 -48 79.02 -48 78 C-46.02 78 -44.04 78 -42 78 C-42 77.01 -42 76.02 -42 75 C-41.01 75 -40.02 75 -39 75 C-39 74.01 -39 73.02 -39 72 C-38.01 72 -37.02 72 -36 72 C-36 74.97 -36 77.94 -36 81 C-35.01 81 -34.02 81 -33 81 C-33 82.98 -33 84.96 -33 87 C-32.01 87 -31.02 87 -30 87 C-30 87.99 -30 88.98 -30 90 C-29.01 90 -28.02 90 -27 90 C-27 90.99 -27 91.98 -27 93 C-26.01 93 -25.02 93 -24 93 C-24 93.99 -24 94.98 -24 96 C-23.01 96 -22.02 96 -21 96 C-21 96.99 -21 97.98 -21 99 C-20.01 99 -19.02 99 -18 99 C-18 99.99 -18 100.98 -18 102 C-17.01 102 -16.02 102 -15 102 C-15 102.99 -15 103.98 -15 105 C-14.01 105 -13.02 105 -12 105 C-12 105.99 -12 106.98 -12 108 C-10.02 108 -8.04 108 -6 108 C-6 108.99 -6 109.98 -6 111 C2.91 111 11.82 111 21 111 C21 110.01 21 109.02 21 108 C21.99 108 22.98 108 24 108 C24 107.01 24 106.02 24 105 C24.99 105 25.98 105 27 105 C27 104.01 27 103.02 27 102 C27.99 102 28.98 102 30 102 C30 99.03 30 96.06 30 93 C30.99 93 31.98 93 33 93 C33 92.01 33 91.02 33 90 C32.01 90 31.02 90 30 90 C30 89.01 30 88.02 30 87 C30.99 87 31.98 87 33 87 C33 85.02 33 83.04 33 81 C34.98 81 36.96 81 39 81 C39 80.01 39 79.02 39 78 C37.02 78 35.04 78 33 78 C33 77.01 33 76.02 33 75 C32.01 75 31.02 75 30 75 C30 74.01 30 73.02 30 72 C30.99 72 31.98 72 33 72 C33 68.04 33 64.08 33 60 C33.99 60 34.98 60 36 60 C36 59.01 36 58.02 36 57 C36.99 57 37.98 57 39 57 C39 53.04 39 49.08 39 45 C39.99 45 40.98 45 42 45 C42 40.05 42 35.1 42 30 C41.01 30 40.02 30 39 30 C39 29.01 39 28.02 39 27 C37.02 27 35.04 27 33 27 C33 27.99 33 28.98 33 30 C31.02 30 29.04 30 27 30 C27 29.01 27 28.02 27 27 C26.01 27 25.02 27 24 27 C24 26.01 24 25.02 24 24 C23.01 24 22.02 24 21 24 C21 23.01 21 22.02 21 21 C19.02 21 17.04 21 15 21 C15 20.01 15 19.02 15 18 C11.04 18 7.08 18 3 18 C3 18.99 3 19.98 3 21 C2.01 21 1.02 21 0 21 C0 14.07 0 7.14 0 0 Z " fill="#F6C2E9" transform="translate(60,0)"/>
<path d="M0 0 C0.99 0 1.98 0 3 0 C3 2.97 3 5.94 3 9 C3.99 9 4.98 9 6 9 C6 10.98 6 12.96 6 15 C6.99 15 7.98 15 9 15 C9 15.99 9 16.98 9 18 C9.99 18 10.98 18 12 18 C12 18.99 12 19.98 12 21 C12.99 21 13.98 21 15 21 C15 21.99 15 22.98 15 24 C15.99 24 16.98 24 18 24 C18 24.99 18 25.98 18 27 C18.99 27 19.98 27 21 27 C21 27.99 21 28.98 21 30 C21.99 30 22.98 30 24 30 C24 30.99 24 31.98 24 33 C24.99 33 25.98 33 27 33 C27 33.99 27 34.98 27 36 C28.98 36 30.96 36 33 36 C33 36.99 33 37.98 33 39 C41.91 39 50.82 39 60 39 C60 38.01 60 37.02 60 36 C60.99 36 61.98 36 63 36 C63 35.01 63 34.02 63 33 C63.99 33 64.98 33 66 33 C66 32.01 66 31.02 66 30 C66.99 30 67.98 30 69 30 C69 27.03 69 24.06 69 21 C69.99 21 70.98 21 72 21 C72 20.01 72 19.02 72 18 C71.01 18 70.02 18 69 18 C69 17.01 69 16.02 69 15 C69.99 15 70.98 15 72 15 C72 14.01 72 13.02 72 12 C72.99 12 73.98 12 75 12 C75 15.96 75 19.92 75 24 C75.99 24 76.98 24 78 24 C78 20.37 78 16.74 78 13 C79.65 13 81.3 13 83 13 C83 13.66 83 14.32 83 15 C84.32 15 85.64 15 87 15 C87 15.99 87 16.98 87 18 C87.99 18 88.98 18 90 18 C90 19.98 90 21.96 90 24 C90.99 24 91.98 24 93 24 C93 28.95 93 33.9 93 39 C92.01 39 91.02 39 90 39 C90 39.99 90 40.98 90 42 C87.03 42 84.06 42 81 42 C81 41.01 81 40.02 81 39 C80.01 39 79.02 39 78 39 C78 41.97 78 44.94 78 48 C45.33 48 12.66 48 -21 48 C-21 36.12 -21 24.24 -21 12 C-19.02 12 -17.04 12 -15 12 C-15 11.01 -15 10.02 -15 9 C-13.02 9 -11.04 9 -9 9 C-9 8.01 -9 7.02 -9 6 C-7.02 6 -5.04 6 -3 6 C-3 5.01 -3 4.02 -3 3 C-2.01 3 -1.02 3 0 3 C0 2.01 0 1.02 0 0 Z " fill="#FDFDFD" transform="translate(21,72)"/>
<path d="M0 0 C19.8 0 39.6 0 60 0 C60 6.93 60 13.86 60 21 C59.01 21 58.02 21 57 21 C57 20.01 57 19.02 57 18 C53.04 18 49.08 18 45 18 C45 18.99 45 19.98 45 21 C43.02 21 41.04 21 39 21 C39 21.99 39 22.98 39 24 C38.01 24 37.02 24 36 24 C36 24.99 36 25.98 36 27 C35.01 27 34.02 27 33 27 C33 27.99 33 28.98 33 30 C30.03 30 27.06 30 24 30 C24 31.98 24 33.96 24 36 C23.01 36 22.02 36 21 36 C21 37.32 21 38.64 21 40 C20.34 40 19.68 40 19 40 C19 43.3 19 46.6 19 50 C19.66 50 20.32 50 21 50 C21 54.62 21 59.24 21 64 C21.66 64 22.32 64 23 64 C23 65.32 23 66.64 23 68 C22.34 68 21.68 68 21 68 C21 70.31 21 72.62 21 75 C20.01 75 19.02 75 18 75 C18 75.99 18 76.98 18 78 C16.02 78 14.04 78 12 78 C12 78.99 12 79.98 12 81 C10.02 81 8.04 81 6 81 C6 81.99 6 82.98 6 84 C4.02 84 2.04 84 0 84 C0 56.28 0 28.56 0 0 Z " fill="#9E4110" transform="translate(0,0)"/>
<path d="M0 0 C3.96 0 7.92 0 12 0 C12 0.99 12 1.98 12 3 C13.98 3 15.96 3 18 3 C18 2.01 18 1.02 18 0 C21.96 0 25.92 0 30 0 C30 0.99 30 1.98 30 3 C31.98 3 33.96 3 36 3 C36 4.98 36 6.96 36 9 C34.02 9 32.04 9 30 9 C30 9.99 30 10.98 30 12 C29.01 12 28.02 12 27 12 C27 12.99 27 13.98 27 15 C25.02 15 23.04 15 21 15 C21.495 16.485 21.495 16.485 22 18 C24.33071879 18.41870553 24.33071879 18.41870553 27 18 C27.598125 17.175 28.19625 16.35 28.8125 15.5 C31 13 31 13 33.02734375 12.66796875 C35.02122619 12.68548969 37.0129282 12.83441068 39 13 C39 13.66 39 14.32 39 15 C37.02 15 35.04 15 33 15 C33 15.99 33 16.98 33 18 C32.01 18 31.02 18 30 18 C30 18.99 30 19.98 30 21 C28.02 21 26.04 21 24 21 C24 21.99 24 22.98 24 24 C23.01 24 22.02 24 21 24 C21 23.01 21 22.02 21 21 C20.01 21 19.02 21 18 21 C18 22.98 18 24.96 18 27 C15.03 27 12.06 27 9 27 C9 26.01 9 25.02 9 24 C8.01 24 7.02 24 6 24 C6 25.98 6 27.96 6 30 C5.01 30 4.02 30 3 30 C3 29.01 3 28.02 3 27 C2.01 27 1.02 27 0 27 C0 33.93 0 40.86 0 48 C-0.99 48 -1.98 48 -3 48 C-3 47.01 -3 46.02 -3 45 C-3.99 45 -4.98 45 -6 45 C-6 44.01 -6 43.02 -6 42 C-6.99 42 -7.98 42 -9 42 C-9 39.03 -9 36.06 -9 33 C-10.98 33 -12.96 33 -15 33 C-15 36.96 -15 40.92 -15 45 C-16.98 45 -18.96 45 -21 45 C-21 43.02 -21 41.04 -21 39 C-21.99 39 -22.98 39 -24 39 C-24 36.69 -24 34.38 -24 32 C-24.66 32 -25.32 32 -26 32 C-26 28.7 -26 25.4 -26 22 C-25.34 22 -24.68 22 -24 22 C-24 20.68 -24 19.36 -24 18 C-23.01 18 -22.02 18 -21 18 C-21 16.02 -21 14.04 -21 12 C-18.03 12 -15.06 12 -12 12 C-12 11.01 -12 10.02 -12 9 C-11.01 9 -10.02 9 -9 9 C-9 8.01 -9 7.02 -9 6 C-8.01 6 -7.02 6 -6 6 C-6 5.01 -6 4.02 -6 3 C-4.02 3 -2.04 3 0 3 C0 2.01 0 1.02 0 0 Z " fill="#A36145" transform="translate(45,18)"/>
<path d="M0 0 C0.99 0 1.98 0 3 0 C3 0.99 3 1.98 3 3 C4.98 3 6.96 3 9 3 C9 5.97 9 8.94 9 12 C9.99 12 10.98 12 12 12 C12 12.99 12 13.98 12 15 C12.99 15 13.98 15 15 15 C15 17.97 15 20.94 15 24 C15.99 24 16.98 24 18 24 C18 23.01 18 22.02 18 21 C18.99 21 19.98 21 21 21 C21 23.97 21 26.94 21 30 C21.99 30 22.98 30 24 30 C24 29.01 24 28.02 24 27 C25.98 27 27.96 27 30 27 C30 26.01 30 25.02 30 24 C29.01 24 28.02 24 27 24 C27 21.03 27 18.06 27 15 C27.99 15 28.98 15 30 15 C30 14.01 30 13.02 30 12 C31.98 12 33.96 12 36 12 C36 11.01 36 10.02 36 9 C43.92 9 51.84 9 60 9 C60 9.99 60 10.98 60 12 C61.98 12 63.96 12 66 12 C66 14.97 66 17.94 66 21 C66.99 21 67.98 21 69 21 C69 21.99 69 22.98 69 24 C68.01 24 67.02 24 66 24 C66 26.97 66 29.94 66 33 C65.01 33 64.02 33 63 33 C63 33.99 63 34.98 63 36 C62.01 36 61.02 36 60 36 C60 36.99 60 37.98 60 39 C59.01 39 58.02 39 57 39 C57 39.99 57 40.98 57 42 C48.09 42 39.18 42 30 42 C30 41.01 30 40.02 30 39 C28.02 39 26.04 39 24 39 C24 38.01 24 37.02 24 36 C23.01 36 22.02 36 21 36 C21 35.01 21 34.02 21 33 C20.01 33 19.02 33 18 33 C18 32.01 18 31.02 18 30 C17.01 30 16.02 30 15 30 C15 29.01 15 28.02 15 27 C14.01 27 13.02 27 12 27 C12 26.01 12 25.02 12 24 C11.01 24 10.02 24 9 24 C9 23.01 9 22.02 9 21 C8.01 21 7.02 21 6 21 C6 20.01 6 19.02 6 18 C5.01 18 4.02 18 3 18 C3 16.02 3 14.04 3 12 C2.01 12 1.02 12 0 12 C0 8.04 0 4.08 0 0 Z " fill="#4C2216" transform="translate(24,69)"/>
<path d="M0 0 C14.85 0 29.7 0 45 0 C45 27.72 45 55.44 45 84 C43.02 84 41.04 84 39 84 C39 82.02 39 80.04 39 78 C37.02 78 35.04 78 33 78 C33 77.01 33 76.02 33 75 C32.01 75 31.02 75 30 75 C30 74.01 30 73.02 30 72 C30.99 72 31.98 72 33 72 C33 68.04 33 64.08 33 60 C33.99 60 34.98 60 36 60 C36 59.01 36 58.02 36 57 C36.99 57 37.98 57 39 57 C39 53.04 39 49.08 39 45 C39.99 45 40.98 45 42 45 C42 40.05 42 35.1 42 30 C41.01 30 40.02 30 39 30 C39 29.01 39 28.02 39 27 C37.02 27 35.04 27 33 27 C33 27.99 33 28.98 33 30 C31.02 30 29.04 30 27 30 C27 29.01 27 28.02 27 27 C26.01 27 25.02 27 24 27 C24 26.01 24 25.02 24 24 C23.01 24 22.02 24 21 24 C21 23.01 21 22.02 21 21 C19.02 21 17.04 21 15 21 C15 20.01 15 19.02 15 18 C11.04 18 7.08 18 3 18 C3 18.99 3 19.98 3 21 C2.01 21 1.02 21 0 21 C0 14.07 0 7.14 0 0 Z " fill="#F7AED9" transform="translate(60,0)"/>
<path d="M0 0 C2.97 0 5.94 0 9 0 C9 0.99 9 1.98 9 3 C9.99 3 10.98 3 12 3 C12 4.98 12 6.96 12 9 C9.03 9 6.06 9 3 9 C3 9.99 3 10.98 3 12 C2.01 12 1.02 12 0 12 C0 15.96 0 19.92 0 24 C1.98 24 3.96 24 6 24 C6 24.99 6 25.98 6 27 C6.99 27 7.98 27 9 27 C9 26.01 9 25.02 9 24 C9.99 24 10.98 24 12 24 C12 26.97 12 29.94 12 33 C11.01 33 10.02 33 9 33 C9 33.99 9 34.98 9 36 C8.01 36 7.02 36 6 36 C6 36.99 6 37.98 6 39 C0.06 39 -5.88 39 -12 39 C-12 37.02 -12 35.04 -12 33 C-12.99 33 -13.98 33 -15 33 C-15 33.99 -15 34.98 -15 36 C-17.97 36 -20.94 36 -24 36 C-24 35.01 -24 34.02 -24 33 C-24.99 33 -25.98 33 -27 33 C-27 32.01 -27 31.02 -27 30 C-27.99 30 -28.98 30 -30 30 C-30 25.05 -30 20.1 -30 15 C-28.02 15 -26.04 15 -24 15 C-24 15.99 -24 16.98 -24 18 C-24.99 18 -25.98 18 -27 18 C-27 18.99 -27 19.98 -27 21 C-26.01 21 -25.02 21 -24 21 C-24 21.99 -24 22.98 -24 24 C-20.04 24 -16.08 24 -12 24 C-12 20.04 -12 16.08 -12 12 C-11.01 12 -10.02 12 -9 12 C-9 11.01 -9 10.02 -9 9 C-7.02 9 -5.04 9 -3 9 C-3 8.01 -3 7.02 -3 6 C-2.01 6 -1.02 6 0 6 C0 4.02 0 2.04 0 0 Z " fill="#6C3B2D" transform="translate(78,36)"/>
<path d="M0 0 C0.99 0 1.98 0 3 0 C3 0.99 3 1.98 3 3 C3.99 3 4.98 3 6 3 C6 3.99 6 4.98 6 6 C7.98 6 9.96 6 12 6 C12 5.01 12 4.02 12 3 C13.98 3 15.96 3 18 3 C18 3.99 18 4.98 18 6 C18.99 6 19.98 6 21 6 C21 10.95 21 15.9 21 21 C20.01 21 19.02 21 18 21 C18 24.96 18 28.92 18 33 C17.01 33 16.02 33 15 33 C15 33.99 15 34.98 15 36 C14.01 36 13.02 36 12 36 C12 39.96 12 43.92 12 48 C10.02 48 8.04 48 6 48 C6 47.01 6 46.02 6 45 C6.99 45 7.98 45 9 45 C9 42.03 9 39.06 9 36 C8.01 36 7.02 36 6 36 C6 36.99 6 37.98 6 39 C5.01 39 4.02 39 3 39 C3 38.01 3 37.02 3 36 C1.02 36 -0.96 36 -3 36 C-3 32.04 -3 28.08 -3 24 C-2.01 24 -1.02 24 0 24 C0 23.01 0 22.02 0 21 C2.97 21 5.94 21 9 21 C9 19.02 9 17.04 9 15 C8.01 15 7.02 15 6 15 C6 14.01 6 13.02 6 12 C3.03 12 0.06 12 -3 12 C-3 11.01 -3 10.02 -3 9 C-1.02 9 0.96 9 3 9 C3 8.34 3 7.68 3 7 C0.36 7 -2.28 7 -5 7 C-5.33 7.99 -5.66 8.98 -6 10 C-6.66 10 -7.32 10 -8 10 C-8.33 10.99 -8.66 11.98 -9 13 C-10.65 13 -12.3 13 -14 13 C-14.33 11.68 -14.66 10.36 -15 9 C-13.02 9 -11.04 9 -9 9 C-9 8.01 -9 7.02 -9 6 C-8.01 6 -7.02 6 -6 6 C-6 5.01 -6 4.02 -6 3 C-4.02 3 -2.04 3 0 3 C0 2.01 0 1.02 0 0 Z " fill="#161514" transform="translate(81,24)"/>
<path d="M0 0 C9.9 0 19.8 0 30 0 C30 9.57 30 19.14 30 29 C30.66 29 31.32 29 32 29 C32.33 28.34 32.66 27.68 33 27 C33 27.99 33 28.98 33 30 C31.02 30 29.04 30 27 30 C27 29.01 27 28.02 27 27 C26.01 27 25.02 27 24 27 C24 26.01 24 25.02 24 24 C23.01 24 22.02 24 21 24 C21 23.01 21 22.02 21 21 C19.02 21 17.04 21 15 21 C15 20.01 15 19.02 15 18 C11.04 18 7.08 18 3 18 C3 18.99 3 19.98 3 21 C2.01 21 1.02 21 0 21 C0 14.07 0 7.14 0 0 Z " fill="#F594C1" transform="translate(60,0)"/>
<path d="M0 0 C9.9 0 19.8 0 30 0 C30 6.93 30 13.86 30 21 C29.01 21 28.02 21 27 21 C27 20.01 27 19.02 27 18 C23.04 18 19.08 18 15 18 C15 18.99 15 19.98 15 21 C13.02 21 11.04 21 9 21 C9 21.99 9 22.98 9 24 C8.01 24 7.02 24 6 24 C6 24.99 6 25.98 6 27 C5.01 27 4.02 27 3 27 C3 27.99 3 28.98 3 30 C2.01 30 1.02 30 0 30 C0 20.1 0 10.2 0 0 Z " fill="#DE4053" transform="translate(30,0)"/>
<path d="M0 0 C0.99 0 1.98 0 3 0 C3 0.99 3 1.98 3 3 C3.99 3 4.98 3 6 3 C6 3.99 6 4.98 6 6 C6.99 6 7.98 6 9 6 C9 7.98 9 9.96 9 12 C9.99 12 10.98 12 12 12 C12 15.96 12 19.92 12 24 C11.01 24 10.02 24 9 24 C9 24.99 9 25.98 9 27 C7.02 27 5.04 27 3 27 C3 27.99 3 28.98 3 30 C-0.96 30 -4.92 30 -9 30 C-9 29.01 -9 28.02 -9 27 C-9.99 27 -10.98 27 -12 27 C-12 20.07 -12 13.14 -12 6 C-10.02 6 -8.04 6 -6 6 C-6 5.01 -6 4.02 -6 3 C-4.02 3 -2.04 3 0 3 C0 2.01 0 1.02 0 0 Z " fill="#FEFEFE" transform="translate(12,84)"/>
<path d="M0 0 C4.95 0 9.9 0 15 0 C15 9.9 15 19.8 15 30 C13.02 30 11.04 30 9 30 C9 31.98 9 33.96 9 36 C7.02 36 5.04 36 3 36 C3 36.99 3 37.98 3 39 C2.01 39 1.02 39 0 39 C0 26.13 0 13.26 0 0 Z " fill="#C83D29" transform="translate(15,0)"/>
<path d="M0 0 C0.99 0 1.98 0 3 0 C3 4.95 3 9.9 3 15 C3.99 15 4.98 15 6 15 C6 16.98 6 18.96 6 21 C6.99 21 7.98 21 9 21 C9 22.98 9 24.96 9 27 C9.99 27 10.98 27 12 27 C12 25.02 12 23.04 12 21 C12.99 21 13.98 21 15 21 C15 21.99 15 22.98 15 24 C16.98 24 18.96 24 21 24 C21 24.99 21 25.98 21 27 C23.97 27 26.94 27 30 27 C30 27.99 30 28.98 30 30 C28.02 30 26.04 30 24 30 C24 30.99 24 31.98 24 33 C23.01 33 22.02 33 21 33 C21 35.97 21 38.94 21 42 C21.99 42 22.98 42 24 42 C24 42.99 24 43.98 24 45 C22.02 45 20.04 45 18 45 C18 45.99 18 46.98 18 48 C17.01 48 16.02 48 15 48 C15 45.03 15 42.06 15 39 C14.01 39 13.02 39 12 39 C12 39.99 12 40.98 12 42 C11.01 42 10.02 42 9 42 C9 39.03 9 36.06 9 33 C8.01 33 7.02 33 6 33 C6 32.01 6 31.02 6 30 C5.01 30 4.02 30 3 30 C3 27.03 3 24.06 3 21 C1.02 21 -0.96 21 -3 21 C-3 20.01 -3 19.02 -3 18 C-3.99 18 -4.98 18 -6 18 C-6 18.99 -6 19.98 -6 21 C-6.99 21 -7.98 21 -9 21 C-9 19.68 -9 18.36 -9 17 C-8.34 17 -7.68 17 -7 17 C-7 15.68 -7 14.36 -7 13 C-7.66 13 -8.32 13 -9 13 C-9 10.69 -9 8.38 -9 6 C-8.01 6 -7.02 6 -6 6 C-6 7.98 -6 9.96 -6 12 C-4.02 12 -2.04 12 0 12 C0 8.04 0 4.08 0 0 Z " fill="#3F1C13" transform="translate(30,51)"/>
<path d="M0 0 C3.63 0 7.26 0 11 0 C11 0.66 11 1.32 11 2 C8.36 2 5.72 2 3 2 C3 2.99 3 3.98 3 5 C5.97 5 8.94 5 12 5 C12 4.01 12 3.02 12 2 C13.98 2 15.96 2 18 2 C18.33 2.99 18.66 3.98 19 5 C21.33071879 5.41870553 21.33071879 5.41870553 24 5 C24.598125 4.175 25.19625 3.35 25.8125 2.5 C28 0 28 0 30.02734375 -0.33203125 C32.02122619 -0.31451031 34.0129282 -0.16558932 36 0 C36 0.66 36 1.32 36 2 C34.02 2 32.04 2 30 2 C30 2.99 30 3.98 30 5 C29.01 5 28.02 5 27 5 C27 5.99 27 6.98 27 8 C25.02 8 23.04 8 21 8 C21 8.99 21 9.98 21 11 C20.01 11 19.02 11 18 11 C18 10.01 18 9.02 18 8 C17.01 8 16.02 8 15 8 C15 9.98 15 11.96 15 14 C12.03 14 9.06 14 6 14 C6 13.01 6 12.02 6 11 C5.01 11 4.02 11 3 11 C3 12.98 3 14.96 3 17 C2.01 17 1.02 17 0 17 C0 16.01 0 15.02 0 14 C-0.99 14 -1.98 14 -3 14 C-3 20.93 -3 27.86 -3 35 C-3.99 35 -4.98 35 -6 35 C-6 34.01 -6 33.02 -6 32 C-6.99 32 -7.98 32 -9 32 C-9 31.01 -9 30.02 -9 29 C-9.99 29 -10.98 29 -12 29 C-12 25.04 -12 21.08 -12 17 C-11.01 17 -10.02 17 -9 17 C-9 15.02 -9 13.04 -9 11 C-8.01 11 -7.02 11 -6 11 C-6 9.02 -6 7.04 -6 5 C-5.01 5 -4.02 5 -3 5 C-3 4.01 -3 3.02 -3 2 C-2.01 2 -1.02 2 0 2 C0 1.34 0 0.68 0 0 Z " fill="#3F4852" transform="translate(48,31)"/>
<path d="M0 0 C7.92 0 15.84 0 24 0 C24 0.99 24 1.98 24 3 C25.98 3 27.96 3 30 3 C30 4.98 30 6.96 30 9 C29.01 9 28.02 9 27 9 C27 8.01 27 7.02 27 6 C26.01 6 25.02 6 24 6 C24 8.97 24 11.94 24 15 C18.06 15 12.12 15 6 15 C6 14.01 6 13.02 6 12 C4.02 12 2.04 12 0 12 C0 11.01 0 10.02 0 9 C-0.99 9 -1.98 9 -3 9 C-3 8.01 -3 7.02 -3 6 C-3.99 6 -4.98 6 -6 6 C-6 5.01 -6 4.02 -6 3 C-4.02 3 -2.04 3 0 3 C0 2.01 0 1.02 0 0 Z " fill="#BA9E96" transform="translate(60,78)"/>
<path d="M0 0 C0.99 0 1.98 0 3 0 C3 1.98 3 3.96 3 6 C3.99 6 4.98 6 6 6 C6 8.97 6 11.94 6 15 C6.99 15 7.98 15 9 15 C9 15.99 9 16.98 9 18 C9.99 18 10.98 18 12 18 C12 18.99 12 19.98 12 21 C13.98 21 15.96 21 18 21 C18 21.99 18 22.98 18 24 C4.14 24 -9.72 24 -24 24 C-24 21.03 -24 18.06 -24 15 C-23.01 15 -22.02 15 -21 15 C-21 15.99 -21 16.98 -21 18 C-17.04 18 -13.08 18 -9 18 C-9 17.01 -9 16.02 -9 15 C-7.02 15 -5.04 15 -3 15 C-3 14.01 -3 13.02 -3 12 C-2.01 12 -1.02 12 0 12 C0 8.04 0 4.08 0 0 Z " fill="#F1E7E7" transform="translate(24,96)"/>
<path d="M0 0 C2.97 0 5.94 0 9 0 C9 0.99 9 1.98 9 3 C9.99 3 10.98 3 12 3 C12 5.97 12 8.94 12 12 C11.01 12 10.02 12 9 12 C9 13.98 9 15.96 9 18 C8.01 18 7.02 18 6 18 C6 21.96 6 25.92 6 30 C4.02 30 2.04 30 0 30 C0 28.02 0 26.04 0 24 C-0.99 24 -1.98 24 -3 24 C-3 21.69 -3 19.38 -3 17 C-3.66 17 -4.32 17 -5 17 C-5 13.7 -5 10.4 -5 7 C-4.34 7 -3.68 7 -3 7 C-3 5.68 -3 4.36 -3 3 C-2.01 3 -1.02 3 0 3 C0 2.01 0 1.02 0 0 Z " fill="#0F5077" transform="translate(24,33)"/>
<path d="M0 0 C0.99 0 1.98 0 3 0 C3 1.98 3 3.96 3 6 C2.01 6 1.02 6 0 6 C0 6.99 0 7.98 0 9 C-1.98 9 -3.96 9 -6 9 C-6 9.99 -6 10.98 -6 12 C-6.99 12 -7.98 12 -9 12 C-9 15.96 -9 19.92 -9 24 C-12.96 24 -16.92 24 -21 24 C-21 23.01 -21 22.02 -21 21 C-21.99 21 -22.98 21 -24 21 C-24 20.01 -24 19.02 -24 18 C-23.01 18 -22.02 18 -21 18 C-21 17.01 -21 16.02 -21 15 C-22.98 15 -24.96 15 -27 15 C-27 14.01 -27 13.02 -27 12 C-26.01 12 -25.02 12 -24 12 C-24 10.02 -24 8.04 -24 6 C-23.01 6 -22.02 6 -21 6 C-21 6.99 -21 7.98 -21 9 C-18.03 9 -15.06 9 -12 9 C-12 7.02 -12 5.04 -12 3 C-11.01 3 -10.02 3 -9 3 C-9 3.99 -9 4.98 -9 6 C-8.01 6 -7.02 6 -6 6 C-6 5.01 -6 4.02 -6 3 C-4.02 3 -2.04 3 0 3 C0 2.01 0 1.02 0 0 Z " fill="#262322" transform="translate(75,36)"/>
<path d="M0 0 C1.98 0 3.96 0 6 0 C6 2.97 6 5.94 6 9 C6.99 9 7.98 9 9 9 C9 8.01 9 7.02 9 6 C11.97 6 14.94 6 18 6 C18 5.01 18 4.02 18 3 C18.99 3 19.98 3 21 3 C21 5.97 21 8.94 21 12 C20.01 12 19.02 12 18 12 C18 12.99 18 13.98 18 15 C17.01 15 16.02 15 15 15 C15 15.99 15 16.98 15 18 C9.06 18 3.12 18 -3 18 C-3 16.02 -3 14.04 -3 12 C-2.01 12 -1.02 12 0 12 C0 8.04 0 4.08 0 0 Z " fill="#CCB2AB" transform="translate(69,57)"/>
<path d="M0 0 C4.95 0 9.9 0 15 0 C15 5.94 15 11.88 15 18 C11.04 18 7.08 18 3 18 C3 18.99 3 19.98 3 21 C2.01 21 1.02 21 0 21 C0 14.07 0 7.14 0 0 Z " fill="#EE7495" transform="translate(60,0)"/>
<path d="M0 0 C4.95 0 9.9 0 15 0 C15 6.93 15 13.86 15 21 C14.01 21 13.02 21 12 21 C12 20.01 12 19.02 12 18 C8.04 18 4.08 18 0 18 C0 12.06 0 6.12 0 0 Z " fill="#E75A6B" transform="translate(45,0)"/>
<path d="M0 0 C1.98 0 3.96 0 6 0 C6 0.99 6 1.98 6 3 C6.99 3 7.98 3 9 3 C9 3.99 9 4.98 9 6 C10.98 6 12.96 6 15 6 C15 6.99 15 7.98 15 9 C20.94 9 26.88 9 33 9 C33 6.03 33 3.06 33 0 C33.99 0 34.98 0 36 0 C36 0.99 36 1.98 36 3 C36.99 3 37.98 3 39 3 C39 3.99 39 4.98 39 6 C39.99 6 40.98 6 42 6 C42 6.99 42 7.98 42 9 C40.02 9 38.04 9 36 9 C36 10.98 36 12.96 36 15 C29.07 15 22.14 15 15 15 C15 14.01 15 13.02 15 12 C13.02 12 11.04 12 9 12 C9 11.01 9 10.02 9 9 C8.01 9 7.02 9 6 9 C6 8.01 6 7.02 6 6 C5.01 6 4.02 6 3 6 C3 5.01 3 4.02 3 3 C2.01 3 1.02 3 0 3 C0 2.01 0 1.02 0 0 Z " fill="#775A51" transform="translate(51,84)"/>
<path d="M0 0 C0.99 0 1.98 0 3 0 C3 0.99 3 1.98 3 3 C4.98 3 6.96 3 9 3 C9 5.97 9 8.94 9 12 C9.99 12 10.98 12 12 12 C12 12.99 12 13.98 12 15 C12.99 15 13.98 15 15 15 C15 17.97 15 20.94 15 24 C15.99 24 16.98 24 18 24 C18 23.01 18 22.02 18 21 C18.99 21 19.98 21 21 21 C21 24.96 21 28.92 21 33 C20.01 33 19.02 33 18 33 C18 32.01 18 31.02 18 30 C17.01 30 16.02 30 15 30 C15 29.01 15 28.02 15 27 C14.01 27 13.02 27 12 27 C12 26.01 12 25.02 12 24 C11.01 24 10.02 24 9 24 C9 23.01 9 22.02 9 21 C8.01 21 7.02 21 6 21 C6 20.01 6 19.02 6 18 C5.01 18 4.02 18 3 18 C3 16.02 3 14.04 3 12 C2.01 12 1.02 12 0 12 C0 8.04 0 4.08 0 0 Z " fill="#5D2C1F" transform="translate(24,69)"/>
<path d="M0 0 C3.96 0 7.92 0 12 0 C12 0.99 12 1.98 12 3 C13.98 3 15.96 3 18 3 C18 4.98 18 6.96 18 9 C16.02 9 14.04 9 12 9 C12 9.99 12 10.98 12 12 C11.01 12 10.02 12 9 12 C9 12.99 9 13.98 9 15 C7.02 15 5.04 15 3 15 C3 14.01 3 13.02 3 12 C1.02 12 -0.96 12 -3 12 C-3 11.01 -3 10.02 -3 9 C-5.97 8.67 -8.94 8.34 -12 8 C-12 7.34 -12 6.68 -12 6 C-13.65 6 -15.3 6 -17 6 C-17 5.34 -17 4.68 -17 4 C-13.7 4 -10.4 4 -7 4 C-7 4.66 -7 5.32 -7 6 C-4.69 6 -2.38 6 0 6 C0 4.02 0 2.04 0 0 Z " fill="#B67458" transform="translate(63,18)"/>
<path d="M0 0 C0.99 0 1.98 0 3 0 C3 0.99 3 1.98 3 3 C3.99 3 4.98 3 6 3 C6 3.99 6 4.98 6 6 C6.99 6 7.98 6 9 6 C9 6.99 9 7.98 9 9 C10.98 9 12.96 9 15 9 C15 9.99 15 10.98 15 12 C21.93 12 28.86 12 36 12 C36 10.02 36 8.04 36 6 C36.99 6 37.98 6 39 6 C39 8.97 39 11.94 39 15 C38.01 15 37.02 15 36 15 C36 15.99 36 16.98 36 18 C35.01 18 34.02 18 33 18 C33 18.99 33 19.98 33 21 C32.01 21 31.02 21 30 21 C30 20.01 30 19.02 30 18 C25.05 18 20.1 18 15 18 C15 17.01 15 16.02 15 15 C13.02 15 11.04 15 9 15 C9 14.01 9 13.02 9 12 C8.01 12 7.02 12 6 12 C6 11.01 6 10.02 6 9 C5.01 9 4.02 9 3 9 C3 8.01 3 7.02 3 6 C2.01 6 1.02 6 0 6 C0 4.02 0 2.04 0 0 Z " fill="#714940" transform="translate(51,87)"/>
<path d="M0 0 C0.99 0 1.98 0 3 0 C3 0.99 3 1.98 3 3 C5.97 3 8.94 3 12 3 C12 2.01 12 1.02 12 0 C13.98 0 15.96 0 18 0 C18 3.96 18 7.92 18 12 C17.01 12 16.02 12 15 12 C15 15.96 15 19.92 15 24 C13.02 24 11.04 24 9 24 C9 23.01 9 22.02 9 21 C9.99 21 10.98 21 12 21 C12 18.03 12 15.06 12 12 C11.01 12 10.02 12 9 12 C9 12.99 9 13.98 9 15 C8.01 15 7.02 15 6 15 C6 14.01 6 13.02 6 12 C4.02 12 2.04 12 0 12 C0 8.04 0 4.08 0 0 Z " fill="#020304" transform="translate(78,48)"/>
<path d="M0 0 C0.99 0 1.98 0 3 0 C3 3.96 3 7.92 3 12 C5.97 12 8.94 12 12 12 C12 11.01 12 10.02 12 9 C12.66 9 13.32 9 14 9 C14 6.36 14 3.72 14 1 C13.34 0.67 12.68 0.34 12 0 C12.99 0 13.98 0 15 0 C15 4.95 15 9.9 15 15 C14.01 15 13.02 15 12 15 C12 15.99 12 16.98 12 18 C9.03 18 6.06 18 3 18 C3 17.01 3 16.02 3 15 C2.01 15 1.02 15 0 15 C0 17.97 0 20.94 0 24 C-4.95 24 -9.9 24 -15 24 C-15 23.01 -15 22.02 -15 21 C-13.02 21 -11.04 21 -9 21 C-9 20.01 -9 19.02 -9 18 C-8.01 18 -7.02 18 -6 18 C-6 17.01 -6 16.02 -6 15 C-5.01 15 -4.02 15 -3 15 C-3 14.01 -3 13.02 -3 12 C-2.01 12 -1.02 12 0 12 C0 8.04 0 4.08 0 0 Z " fill="#F0E7E7" transform="translate(99,96)"/>
<path d="M0 0 C1.98 0 3.96 0 6 0 C6 0.99 6 1.98 6 3 C5.01 3 4.02 3 3 3 C3 3.99 3 4.98 3 6 C3.99 6 4.98 6 6 6 C6 6.99 6 7.98 6 9 C6.99 9 7.98 9 9 9 C9 9.99 9 10.98 9 12 C11.97 12 14.94 12 18 12 C18 13.98 18 15.96 18 18 C17.01 18 16.02 18 15 18 C15 18.99 15 19.98 15 21 C12.03 21 9.06 21 6 21 C6 20.01 6 19.02 6 18 C5.01 18 4.02 18 3 18 C3 17.01 3 16.02 3 15 C2.01 15 1.02 15 0 15 C0 10.05 0 5.1 0 0 Z " fill="#AE9088" transform="translate(48,51)"/>
<path d="M0 0 C0.99 0 1.98 0 3 0 C3 1.98 3 3.96 3 6 C3.99 6 4.98 6 6 6 C6 6.99 6 7.98 6 9 C6.99 9 7.98 9 9 9 C9 9.99 9 10.98 9 12 C8.01 12 7.02 12 6 12 C6 13.98 6 15.96 6 18 C5.01 18 4.02 18 3 18 C3 19.98 3 21.96 3 24 C2.01 24 1.02 24 0 24 C0 24.99 0 25.98 0 27 C-0.99 27 -1.98 27 -3 27 C-3 25.02 -3 23.04 -3 21 C-2.01 21 -1.02 21 0 21 C0 18.03 0 15.06 0 12 C-0.99 12 -1.98 12 -3 12 C-3 11.01 -3 10.02 -3 9 C-5.97 9 -8.94 9 -12 9 C-12 8.01 -12 7.02 -12 6 C-9.03 6 -6.06 6 -3 6 C-3 5.01 -3 4.02 -3 3 C-2.01 3 -1.02 3 0 3 C0 2.01 0 1.02 0 0 Z " fill="#322E2F" transform="translate(36,24)"/>
<path d="M0 0 C2.97 0 5.94 0 9 0 C9 0.99 9 1.98 9 3 C9.99 3 10.98 3 12 3 C12 4.98 12 6.96 12 9 C9.03 9 6.06 9 3 9 C3 9.99 3 10.98 3 12 C2.01 12 1.02 12 0 12 C0 12.99 0 13.98 0 15 C-3.96 15 -7.92 15 -12 15 C-12 14.01 -12 13.02 -12 12 C-11.01 12 -10.02 12 -9 12 C-9 11.01 -9 10.02 -9 9 C-7.02 9 -5.04 9 -3 9 C-3 8.01 -3 7.02 -3 6 C-2.01 6 -1.02 6 0 6 C0 4.02 0 2.04 0 0 Z " fill="#2B3035" transform="translate(78,36)"/>
<path d="M0 0 C0.99 0 1.98 0 3 0 C3 2.97 3 5.94 3 9 C2.01 9 1.02 9 0 9 C0 9.99 0 10.98 0 12 C-0.99 12 -1.98 12 -3 12 C-3 12.99 -3 13.98 -3 15 C-3.99 15 -4.98 15 -6 15 C-6 14.01 -6 13.02 -6 12 C-6.99 12 -7.98 12 -9 12 C-9 12.99 -9 13.98 -9 15 C-10.98 15 -12.96 15 -15 15 C-15 15.99 -15 16.98 -15 18 C-16.98 18 -18.96 18 -21 18 C-21 16.02 -21 14.04 -21 12 C-19.02 12 -17.04 12 -15 12 C-15 11.01 -15 10.02 -15 9 C-13.02 9 -11.04 9 -9 9 C-9 8.01 -9 7.02 -9 6 C-7.02 6 -5.04 6 -3 6 C-3 5.01 -3 4.02 -3 3 C-2.01 3 -1.02 3 0 3 C0 2.01 0 1.02 0 0 Z " fill="#F4EBEC" transform="translate(21,72)"/>
<path d="M0 0 C0.99 0 1.98 0 3 0 C3 0.99 3 1.98 3 3 C3.99 3 4.98 3 6 3 C6 9.93 6 16.86 6 24 C5.01 24 4.02 24 3 24 C3 23.01 3 22.02 3 21 C2.01 21 1.02 21 0 21 C0 20.01 0 19.02 0 18 C-0.99 18 -1.98 18 -3 18 C-3 14.04 -3 10.08 -3 6 C-2.01 6 -1.02 6 0 6 C0 4.02 0 2.04 0 0 Z " fill="#744234" transform="translate(39,42)"/>
<path d="M0 0 C2.97 0 5.94 0 9 0 C9 0.99 9 1.98 9 3 C9.99 3 10.98 3 12 3 C12 5.97 12 8.94 12 12 C9.03 12 6.06 12 3 12 C3 11.01 3 10.02 3 9 C1.02 9 -0.96 9 -3 9 C-3 7.02 -3 5.04 -3 3 C-2.01 3 -1.02 3 0 3 C0 2.01 0 1.02 0 0 Z " fill="#F3EBE9" transform="translate(63,81)"/>
<path d="M0 0 C0.99 0 1.98 0 3 0 C3 1.98 3 3.96 3 6 C3.99 6 4.98 6 6 6 C6 8.31 6 10.62 6 13 C6.66 13 7.32 13 8 13 C8 14.32 8 15.64 8 17 C7.34 17 6.68 17 6 17 C6 19.31 6 21.62 6 24 C4.02 24 2.04 24 0 24 C0 16.08 0 8.16 0 0 Z " fill="#BD3B27" transform="translate(15,51)"/>
<path d="M0 0 C3.63 0 7.26 0 11 0 C11 0.66 11 1.32 11 2 C8.36 2 5.72 2 3 2 C3 6.95 3 11.9 3 17 C2.01 17 1.02 17 0 17 C0 16.01 0 15.02 0 14 C-1.98 14 -3.96 14 -6 14 C-6 11.03 -6 8.06 -6 5 C-5.01 5 -4.02 5 -3 5 C-3 4.01 -3 3.02 -3 2 C-2.01 2 -1.02 2 0 2 C0 1.34 0 0.68 0 0 Z " fill="#3F4850" transform="translate(48,31)"/>
<path d="M0 0 C0.99 0 1.98 0 3 0 C3 0.99 3 1.98 3 3 C3.99 3 4.98 3 6 3 C6 5.97 6 8.94 6 12 C6.99 12 7.98 12 9 12 C9 11.01 9 10.02 9 9 C9.99 9 10.98 9 12 9 C12 12.96 12 16.92 12 21 C11.01 21 10.02 21 9 21 C9 20.01 9 19.02 9 18 C8.01 18 7.02 18 6 18 C6 17.01 6 16.02 6 15 C5.01 15 4.02 15 3 15 C3 14.01 3 13.02 3 12 C2.01 12 1.02 12 0 12 C0 8.04 0 4.08 0 0 Z " fill="#663427" transform="translate(33,81)"/>
<path d="M0 0 C1.98 0 3.96 0 6 0 C6 0.99 6 1.98 6 3 C6.99 3 7.98 3 9 3 C9 3.99 9 4.98 9 6 C10.98 6 12.96 6 15 6 C15 6.99 15 7.98 15 9 C13.02 9 11.04 9 9 9 C9 10.98 9 12.96 9 15 C8.01 15 7.02 15 6 15 C6 13.02 6 11.04 6 9 C4.02 9 2.04 9 0 9 C0 8.01 0 7.02 0 6 C-1.98 6 -3.96 6 -6 6 C-6 5.01 -6 4.02 -6 3 C-4.02 3 -2.04 3 0 3 C0 2.01 0 1.02 0 0 Z " fill="#0F0808" transform="translate(84,72)"/>
<path d="M0 0 C1.98 0 3.96 0 6 0 C6 1.32 6 2.64 6 4 C8.97 4.495 8.97 4.495 12 5 C12 7.31 12 9.62 12 12 C8.04 12 4.08 12 0 12 C0 11.01 0 10.02 0 9 C-0.99 9 -1.98 9 -3 9 C-3 8.01 -3 7.02 -3 6 C-2.01 6 -1.02 6 0 6 C0 4.02 0 2.04 0 0 Z " fill="#3A2E29" transform="translate(54,48)"/>
<path d="M0 0 C0.99 0 1.98 0 3 0 C3 0.99 3 1.98 3 3 C5.97 3 8.94 3 12 3 C12 2.01 12 1.02 12 0 C12.99 0 13.98 0 15 0 C15 1.98 15 3.96 15 6 C15.99 6 16.98 6 18 6 C18 6.99 18 7.98 18 9 C12.06 9 6.12 9 0 9 C0 6.03 0 3.06 0 0 Z " fill="#87523B" transform="translate(99,111)"/>
<path d="M0 0 C2.97 0 5.94 0 9 0 C9 0.99 9 1.98 9 3 C9.99 3 10.98 3 12 3 C12 3.99 12 4.98 12 6 C10.02 6 8.04 6 6 6 C6 7.98 6 9.96 6 12 C4.02 12 2.04 12 0 12 C0 11.01 0 10.02 0 9 C-0.99 9 -1.98 9 -3 9 C-3 7.02 -3 5.04 -3 3 C-2.01 3 -1.02 3 0 3 C0 2.01 0 1.02 0 0 Z " fill="#3A1B14" transform="translate(48,96)"/>
<path d="M0 0 C0.99 0 1.98 0 3 0 C3 0.99 3 1.98 3 3 C4.98 3 6.96 3 9 3 C9 3.99 9 4.98 9 6 C11.97 6 14.94 6 18 6 C18 6.99 18 7.98 18 9 C16.02 9 14.04 9 12 9 C12 9.99 12 10.98 12 12 C9.03 12 6.06 12 3 12 C3 11.01 3 10.02 3 9 C2.01 9 1.02 9 0 9 C0 6.03 0 3.06 0 0 Z " fill="#492016" transform="translate(42,72)"/>
<path d="M0 0 C0.99 0 1.98 0 3 0 C3 4.95 3 9.9 3 15 C1.02 15 -0.96 15 -3 15 C-3 15.99 -3 16.98 -3 18 C-3.99 18 -4.98 18 -6 18 C-6 18.99 -6 19.98 -6 21 C-6.99 21 -7.98 21 -9 21 C-9 19.68 -9 18.36 -9 17 C-8.34 17 -7.68 17 -7 17 C-7 15.68 -7 14.36 -7 13 C-7.66 13 -8.32 13 -9 13 C-9 10.69 -9 8.38 -9 6 C-8.01 6 -7.02 6 -6 6 C-6 7.98 -6 9.96 -6 12 C-4.02 12 -2.04 12 0 12 C0 8.04 0 4.08 0 0 Z " fill="#6B2319" transform="translate(30,51)"/>
<path d="M0 0 C0.99 0 1.98 0 3 0 C3 2.97 3 5.94 3 9 C2.01 9 1.02 9 0 9 C0 9.99 0 10.98 0 12 C-0.99 12 -1.98 12 -3 12 C-3 12.99 -3 13.98 -3 15 C-3.99 15 -4.98 15 -6 15 C-6 13.02 -6 11.04 -6 9 C-6.99 9 -7.98 9 -9 9 C-9 7.02 -9 5.04 -9 3 C-6.03 3 -3.06 3 0 3 C0 2.01 0 1.02 0 0 Z " fill="#AB8071" transform="translate(87,60)"/>
<path d="M0 0 C0.99 0 1.98 0 3 0 C3 4.95 3 9.9 3 15 C2.01 15 1.02 15 0 15 C0 18.96 0 22.92 0 27 C-0.99 27 -1.98 27 -3 27 C-3 24.03 -3 21.06 -3 18 C-3.99 18 -4.98 18 -6 18 C-6 17.01 -6 16.02 -6 15 C-5.01 15 -4.02 15 -3 15 C-3 13.02 -3 11.04 -3 9 C-2.01 9 -1.02 9 0 9 C0 6.03 0 3.06 0 0 Z " fill="#050507" transform="translate(99,30)"/>
<path d="M0 0 C3.96 0 7.92 0 12 0 C12 0.99 12 1.98 12 3 C13.98 3 15.96 3 18 3 C18 3.99 18 4.98 18 6 C16.02 6 14.04 6 12 6 C12 6.99 12 7.98 12 9 C9.03 9 6.06 9 3 9 C3 8.01 3 7.02 3 6 C5.64 6 8.28 6 11 6 C11 5.34 11 4.68 11 4 C7.37 4 3.74 4 0 4 C0 4.66 0 5.32 0 6 C-0.99 6 -1.98 6 -3 6 C-3 5.01 -3 4.02 -3 3 C-2.01 3 -1.02 3 0 3 C0 2.01 0 1.02 0 0 Z " fill="#2D2C2F" transform="translate(48,27)"/>
<path d="M0 0 C0.99 0 1.98 0 3 0 C3 0.99 3 1.98 3 3 C3.99 3 4.98 3 6 3 C6 4.98 6 6.96 6 9 C5.01 9 4.02 9 3 9 C3 8.34 3 7.68 3 7 C0.36 7 -2.28 7 -5 7 C-5.33 7.99 -5.66 8.98 -6 10 C-6.66 10 -7.32 10 -8 10 C-8.33 10.99 -8.66 11.98 -9 13 C-10.65 13 -12.3 13 -14 13 C-14.33 11.68 -14.66 10.36 -15 9 C-13.02 9 -11.04 9 -9 9 C-9 8.01 -9 7.02 -9 6 C-8.01 6 -7.02 6 -6 6 C-6 5.01 -6 4.02 -6 3 C-4.02 3 -2.04 3 0 3 C0 2.01 0 1.02 0 0 Z " fill="#303539" transform="translate(81,24)"/>
<path d="M0 0 C0.99 0 1.98 0 3 0 C3 3.96 3 7.92 3 12 C-1.95 12 -6.9 12 -12 12 C-12 11.01 -12 10.02 -12 9 C-10.02 9 -8.04 9 -6 9 C-6 8.01 -6 7.02 -6 6 C-5.01 6 -4.02 6 -3 6 C-3 5.01 -3 4.02 -3 3 C-2.01 3 -1.02 3 0 3 C0 2.01 0 1.02 0 0 Z " fill="#F3E9E9" transform="translate(96,108)"/>
<path d="M0 0 C0.99 0 1.98 0 3 0 C3 3.96 3 7.92 3 12 C2.01 12 1.02 12 0 12 C0 15.96 0 19.92 0 24 C-1.98 24 -3.96 24 -6 24 C-6 23.01 -6 22.02 -6 21 C-5.01 21 -4.02 21 -3 21 C-3 17.04 -3 13.08 -3 9 C-2.01 9 -1.02 9 0 9 C0 6.03 0 3.06 0 0 Z " fill="#251A18" transform="translate(93,48)"/>
<path d="M0 0 C2.97 0 5.94 0 9 0 C9 0.99 9 1.98 9 3 C9.99 3 10.98 3 12 3 C12 4.98 12 6.96 12 9 C9.03 9 6.06 9 3 9 C3 8.01 3 7.02 3 6 C2.01 6 1.02 6 0 6 C0 4.02 0 2.04 0 0 Z " fill="#4E657E" transform="translate(51,36)"/>
<path d="M0 0 C2.97 0 5.94 0 9 0 C9 0.99 9 1.98 9 3 C9.99 3 10.98 3 12 3 C12 4.98 12 6.96 12 9 C9.03 9 6.06 9 3 9 C3 8.01 3 7.02 3 6 C2.01 6 1.02 6 0 6 C0 4.02 0 2.04 0 0 Z " fill="#414C56" transform="translate(78,36)"/>
<path d="M0 0 C8.91 0 17.82 0 27 0 C27 0.99 27 1.98 27 3 C18.09 3 9.18 3 0 3 C0 2.01 0 1.02 0 0 Z " fill="#516881" transform="translate(54,108)"/>
<path d="M0 0 C1.98 0 3.96 0 6 0 C6 0.99 6 1.98 6 3 C6.99 3 7.98 3 9 3 C9 3.99 9 4.98 9 6 C10.98 6 12.96 6 15 6 C15 7.98 15 9.96 15 12 C13.02 12 11.04 12 9 12 C9 11.01 9 10.02 9 9 C8.01 9 7.02 9 6 9 C6 8.01 6 7.02 6 6 C5.01 6 4.02 6 3 6 C3 5.01 3 4.02 3 3 C2.01 3 1.02 3 0 3 C0 2.01 0 1.02 0 0 Z " fill="#A87F71" transform="translate(51,84)"/>
<path d="M0 0 C0.99 0 1.98 0 3 0 C3 1.32 3 2.64 3 4 C2.34 4 1.68 4 1 4 C1 7.3 1 10.6 1 14 C1.66 14 2.32 14 3 14 C3 16.31 3 18.62 3 21 C2.01 21 1.02 21 0 21 C0 19.02 0 17.04 0 15 C-0.99 15 -1.98 15 -3 15 C-3 11.04 -3 7.08 -3 3 C-2.01 3 -1.02 3 0 3 C0 2.01 0 1.02 0 0 Z " fill="#0C486D" transform="translate(18,36)"/>
<path d="M0 0 C0.99 0 1.98 0 3 0 C3 0.99 3 1.98 3 3 C3.99 3 4.98 3 6 3 C6 3.99 6 4.98 6 6 C7.98 6 9.96 6 12 6 C12 6.99 12 7.98 12 9 C7.05 9 2.1 9 -3 9 C-3 8.01 -3 7.02 -3 6 C-2.01 6 -1.02 6 0 6 C0 4.02 0 2.04 0 0 Z " fill="#F3E9E9" transform="translate(30,111)"/>
<path d="M0 0 C1.98 0 3.96 0 6 0 C6 1.98 6 3.96 6 6 C4.02 6 2.04 6 0 6 C0 6.99 0 7.98 0 9 C-1.98 9 -3.96 9 -6 9 C-6 7.02 -6 5.04 -6 3 C-4.02 3 -2.04 3 0 3 C0 2.01 0 1.02 0 0 Z " fill="#F6F3F3" transform="translate(6,81)"/>
<path d="M0 0 C3.96 0 7.92 0 12 0 C12 0.99 12 1.98 12 3 C9.03 3 6.06 3 3 3 C3 3.99 3 4.98 3 6 C2.01 6 1.02 6 0 6 C0 6.99 0 7.98 0 9 C-0.99 9 -1.98 9 -3 9 C-3 8.01 -3 7.02 -3 6 C-3.99 6 -4.98 6 -6 6 C-6 5.01 -6 4.02 -6 3 C-4.02 3 -2.04 3 0 3 C0 2.01 0 1.02 0 0 Z " fill="#C7ADA6" transform="translate(60,78)"/>
<path d="M0 0 C3.3 0 6.6 0 10 0 C10 0.66 10 1.32 10 2 C12.31 2 14.62 2 17 2 C17 2.99 17 3.98 17 5 C17.99 5 18.98 5 20 5 C20 5.99 20 6.98 20 8 C18.02 8 16.04 8 14 8 C14 7.01 14 6.02 14 5 C11.03 4.67 8.06 4.34 5 4 C5 3.34 5 2.68 5 2 C3.35 2 1.7 2 0 2 C0 1.34 0 0.68 0 0 Z " fill="#AF6B4E" transform="translate(46,22)"/>
<path d="M0 0 C3.96 0 7.92 0 12 0 C12 0.99 12 1.98 12 3 C11.01 3 10.02 3 9 3 C9 3.99 9 4.98 9 6 C6.03 6 3.06 6 0 6 C0 4.02 0 2.04 0 0 Z " fill="#2B2926" transform="translate(81,45)"/>
<path d="M0 0 C1.98 0 3.96 0 6 0 C6 3.96 6 7.92 6 12 C5.01 12 4.02 12 3 12 C3 11.01 3 10.02 3 9 C2.01 9 1.02 9 0 9 C0 6.03 0 3.06 0 0 Z " fill="#4FA6D9" transform="translate(93,27)"/>
<path d="M0 0 C1.98 0 3.96 0 6 0 C6 0.99 6 1.98 6 3 C7.98 3 9.96 3 12 3 C11.67 3.99 11.34 4.98 11 6 C11 5.34 11 4.68 11 4 C9.35 4 7.7 4 6 4 C6 7.63 6 11.26 6 15 C5.01 15 4.02 15 3 15 C3 11.04 3 7.08 3 3 C2.01 3 1.02 3 0 3 C0 2.01 0 1.02 0 0 Z " fill="#EBE1E1" transform="translate(93,81)"/>
<path d="M0 0 C0.99 0 1.98 0 3 0 C3 0.99 3 1.98 3 3 C3.99 3 4.98 3 6 3 C6 3.99 6 4.98 6 6 C6.99 6 7.98 6 9 6 C9 6.99 9 7.98 9 9 C6.03 9 3.06 9 0 9 C0 6.03 0 3.06 0 0 Z " fill="#502519" transform="translate(99,111)"/>
<path d="M0 0 C5.94 0 11.88 0 18 0 C18 0.99 18 1.98 18 3 C12.06 3 6.12 3 0 3 C0 2.01 0 1.02 0 0 Z " fill="#B89B93" transform="translate(66,96)"/>
<path d="M0 0 C5.94 0 11.88 0 18 0 C18 0.99 18 1.98 18 3 C12.06 3 6.12 3 0 3 C0 2.01 0 1.02 0 0 Z " fill="#7D4D3F" transform="translate(66,93)"/>
<path d="M0 0 C0.99 0 1.98 0 3 0 C3 2.97 3 5.94 3 9 C0.03 9 -2.94 9 -6 9 C-6 8.01 -6 7.02 -6 6 C-5.01 6 -4.02 6 -3 6 C-3 5.01 -3 4.02 -3 3 C-2.01 3 -1.02 3 0 3 C0 2.01 0 1.02 0 0 Z " fill="#E6D8D3" transform="translate(72,84)"/>
<path d="M0 0 C1.98 0 3.96 0 6 0 C6 0.99 6 1.98 6 3 C7.98 3 9.96 3 12 3 C12 4.98 12 6.96 12 9 C11.01 9 10.02 9 9 9 C9 8.01 9 7.02 9 6 C7.02 6 5.04 6 3 6 C3 5.01 3 4.02 3 3 C2.01 3 1.02 3 0 3 C0 2.01 0 1.02 0 0 Z " fill="#B38B80" transform="translate(78,78)"/>
<path d="M0 0 C3.96 0 7.92 0 12 0 C12 2.97 12 5.94 12 9 C11.01 9 10.02 9 9 9 C9 7.02 9 5.04 9 3 C6.03 3 3.06 3 0 3 C0 2.01 0 1.02 0 0 Z " fill="#7C4C3F" transform="translate(57,60)"/>
<path d="M0 0 C2.97 0 5.94 0 9 0 C9 1.98 9 3.96 9 6 C6.03 6 3.06 6 0 6 C0 4.02 0 2.04 0 0 Z " fill="#0B92D2" transform="translate(57,54)"/>
<path d="M0 0 C0.99 0 1.98 0 3 0 C3 3.96 3 7.92 3 12 C1.02 12 -0.96 12 -3 12 C-3 10.02 -3 8.04 -3 6 C-2.01 6 -1.02 6 0 6 C0 4.02 0 2.04 0 0 Z " fill="#0F6FA9" transform="translate(27,51)"/>
<path d="M0 0 C0.99 0 1.98 0 3 0 C3 0.99 3 1.98 3 3 C3.99 3 4.98 3 6 3 C6 5.97 6 8.94 6 12 C5.01 12 4.02 12 3 12 C3 11.01 3 10.02 3 9 C2.01 9 1.02 9 0 9 C0 6.03 0 3.06 0 0 Z " fill="#A26145" transform="translate(39,42)"/>
<path d="M0 0 C0.99 0 1.98 0 3 0 C3 4.95 3 9.9 3 15 C2.01 15 1.02 15 0 15 C0 10.05 0 5.1 0 0 Z " fill="#E8D5D5" transform="translate(99,96)"/>
<path d="M0 0 C4.95 0 9.9 0 15 0 C15 0.99 15 1.98 15 3 C10.05 3 5.1 3 0 3 C0 2.01 0 1.02 0 0 Z " fill="#0B0A0E" transform="translate(66,105)"/>
<path d="M0 0 C0.99 0 1.98 0 3 0 C3 4.95 3 9.9 3 15 C2.01 15 1.02 15 0 15 C0 10.05 0 5.1 0 0 Z " fill="#0C0A0C" transform="translate(114,96)"/>
<path d="M0 0 C1.98 0 3.96 0 6 0 C6 2.97 6 5.94 6 9 C5.01 9 4.02 9 3 9 C3 8.01 3 7.02 3 6 C2.01 6 1.02 6 0 6 C0 4.02 0 2.04 0 0 Z " fill="#664D4C" transform="translate(27,81)"/>
<path d="M0 0 C2.97 0 5.94 0 9 0 C9 0.99 9 1.98 9 3 C7.02 3 5.04 3 3 3 C3 4.98 3 6.96 3 9 C2.01 9 1.02 9 0 9 C0 6.03 0 3.06 0 0 Z " fill="#585657" transform="translate(90,78)"/>
<path d="M0 0 C0.99 0 1.98 0 3 0 C3 0.99 3 1.98 3 3 C3.99 3 4.98 3 6 3 C6 5.97 6 8.94 6 12 C5.01 12 4.02 12 3 12 C3 10.02 3 8.04 3 6 C2.01 6 1.02 6 0 6 C0 4.02 0 2.04 0 0 Z " fill="#57291C" transform="translate(36,66)"/>
<path d="M0 0 C2.97 0 5.94 0 9 0 C9 0.99 9 1.98 9 3 C8.01 3 7.02 3 6 3 C6 3.99 6 4.98 6 6 C4.02 6 2.04 6 0 6 C0 4.02 0 2.04 0 0 Z " fill="#0682CB" transform="translate(78,54)"/>
<path d="M0 0 C0.99 0 1.98 0 3 0 C3 4.95 3 9.9 3 15 C2.01 15 1.02 15 0 15 C0 10.05 0 5.1 0 0 Z " fill="#58291D" transform="translate(33,51)"/>
<path d="M0 0 C0.99 0 1.98 0 3 0 C3 4.95 3 9.9 3 15 C2.01 15 1.02 15 0 15 C0 10.05 0 5.1 0 0 Z " fill="#212529" transform="translate(30,51)"/>
<path d="M0 0 C0.99 0 1.98 0 3 0 C3 0.99 3 1.98 3 3 C3.99 3 4.98 3 6 3 C6 3.99 6 4.98 6 6 C2.04 6 -1.92 6 -6 6 C-6 5.01 -6 4.02 -6 3 C-4.02 3 -2.04 3 0 3 C0 2.01 0 1.02 0 0 Z " fill="#080506" transform="translate(81,24)"/>
<path d="M0 0 C0.33 0 0.66 0 1 0 C1 1.98 1 3.96 1 6 C-1.97 6 -4.94 6 -8 6 C-8.33 5.01 -8.66 4.02 -9 3 C-6.64561267 1.57055055 -5.51967567 0.91338739 -2.75 1.375 C-2.1725 1.58125 -1.595 1.7875 -1 2 C-0.67 1.34 -0.34 0.68 0 0 Z " fill="#D8C3BD" transform="translate(77,68)"/>
<path d="M0 0 C2.31 0 4.62 0 7 0 C8.35439668 2.70879335 8.06501451 5.00933268 8 8 C6.02 8 4.04 8 2 8 C2 7.01 2 6.02 2 5 C2.99 5 3.98 5 5 5 C5 4.01 5 3.02 5 2 C3.35 2 1.7 2 0 2 C0 1.34 0 0.68 0 0 Z " fill="#0F4667" transform="translate(25,37)"/>
<path d="M0 0 C1.98 0 3.96 0 6 0 C6 0.99 6 1.98 6 3 C6.99 3 7.98 3 9 3 C9 3.99 9 4.98 9 6 C7.02 6 5.04 6 3 6 C3 5.01 3 4.02 3 3 C2.01 3 1.02 3 0 3 C0 2.01 0 1.02 0 0 Z " fill="#536981" transform="translate(45,102)"/>
<path d="M0 0 C0.99 0 1.98 0 3 0 C3 1.98 3 3.96 3 6 C3.99 6 4.98 6 6 6 C6 6.99 6 7.98 6 9 C4.02 9 2.04 9 0 9 C0 6.03 0 3.06 0 0 Z " fill="#C2A69F" transform="translate(75,84)"/>
<path d="M0 0 C1.98 0 3.96 0 6 0 C6 2.97 6 5.94 6 9 C5.01 9 4.02 9 3 9 C3 7.02 3 5.04 3 3 C2.01 3 1.02 3 0 3 C0 2.01 0 1.02 0 0 Z " fill="#120A0D" transform="translate(45,84)"/>
<path d="M0 0 C0.99 0 1.98 0 3 0 C3 1.98 3 3.96 3 6 C0.03 6 -2.94 6 -6 6 C-6 5.01 -6 4.02 -6 3 C-4.02 3 -2.04 3 0 3 C0 2.01 0 1.02 0 0 Z " fill="#52261A" transform="translate(84,72)"/>
<path d="M0 0 C0.99 0 1.98 0 3 0 C3 3.96 3 7.92 3 12 C2.01 12 1.02 12 0 12 C0 8.04 0 4.08 0 0 Z " fill="#516780" transform="translate(24,69)"/>
<path d="M0 0 C0.99 0 1.98 0 3 0 C3 1.98 3 3.96 3 6 C-1.95 6 -6.9 6 -12 6 C-12 5.01 -12 4.02 -12 3 C-11.01 3 -10.02 3 -9 3 C-9 3.66 -9 4.32 -9 5 C-6.03 5 -3.06 5 0 5 C0 3.35 0 1.7 0 0 Z " fill="#C7A195" transform="translate(78,69)"/>
<path d="M0 0 C1.98 0 3.96 0 6 0 C6 1.98 6 3.96 6 6 C4.02 6 2.04 6 0 6 C0 4.02 0 2.04 0 0 Z " fill="#5B2B1F" transform="translate(27,66)"/>
<path d="M0 0 C2.97 0 5.94 0 9 0 C9 0.99 9 1.98 9 3 C7.02 3 5.04 3 3 3 C3 3.99 3 4.98 3 6 C2.01 6 1.02 6 0 6 C0 4.02 0 2.04 0 0 Z " fill="#9D6046" transform="translate(75,60)"/>
<path d="M0 0 C0.99 0 1.98 0 3 0 C3 0.99 3 1.98 3 3 C4.98 3 6.96 3 9 3 C9 3.99 9 4.98 9 6 C6.03 6 3.06 6 0 6 C0 4.02 0 2.04 0 0 Z " fill="#1B1817" transform="translate(78,48)"/>
<path d="M0 0 C0.99 0 1.98 0 3 0 C3 0.99 3 1.98 3 3 C3.99 3 4.98 3 6 3 C6 4.98 6 6.96 6 9 C5.01 9 4.02 9 3 9 C3 8.01 3 7.02 3 6 C2.01 6 1.02 6 0 6 C0 4.02 0 2.04 0 0 Z " fill="#7A493B" transform="translate(39,51)"/>
<path d="M0 0 C3.96 0 7.92 0 12 0 C12 0.99 12 1.98 12 3 C8.04 3 4.08 3 0 3 C0 2.01 0 1.02 0 0 Z " fill="#D2BCB6" transform="translate(66,48)"/>
<path d="M0 0 C0.99 0 1.98 0 3 0 C3 3.96 3 7.92 3 12 C2.01 12 1.02 12 0 12 C0 8.04 0 4.08 0 0 Z " fill="#050404" transform="translate(15,39)"/>
<path d="M0 0 C0.99 0 1.98 0 3 0 C3 1.98 3 3.96 3 6 C0.03 6 -2.94 6 -6 6 C-6 5.01 -6 4.02 -6 3 C-4.02 3 -2.04 3 0 3 C0 2.01 0 1.02 0 0 Z " fill="#252222" transform="translate(75,36)"/>
<path d="M0 0 C3.96 0 7.92 0 12 0 C12 0.99 12 1.98 12 3 C8.04 3 4.08 3 0 3 C0 2.01 0 1.02 0 0 Z " fill="#060404" transform="translate(48,27)"/>
<path d="M0 0 C3.96 0 7.92 0 12 0 C12 0.99 12 1.98 12 3 C8.04 3 4.08 3 0 3 C0 2.01 0 1.02 0 0 Z " fill="#0A0506" transform="translate(63,18)"/>
<path d="M0 0 C3.96 0 7.92 0 12 0 C12 0.99 12 1.98 12 3 C8.04 3 4.08 3 0 3 C0 2.01 0 1.02 0 0 Z " fill="#0A0404" transform="translate(45,18)"/>
<path d="M0 0 C0.99 0 1.98 0 3 0 C3 1.98 3 3.96 3 6 C2.01 6 1.02 6 0 6 C0 5.01 0 4.02 0 3 C-4.95 3 -9.9 3 -15 3 C-15 2.67 -15 2.34 -15 2 C-10.05 2 -5.1 2 0 2 C0 1.34 0 0.68 0 0 Z " fill="#4C3E3E" transform="translate(81,102)"/>
<path d="M0 0 C0.99 0 1.98 0 3 0 C3 2.97 3 5.94 3 9 C2.01 9 1.02 9 0 9 C0 6.03 0 3.06 0 0 Z " fill="#0D0808" transform="translate(99,111)"/>
<path d="M0 0 C0.99 0 1.98 0 3 0 C3 2.97 3 5.94 3 9 C2.01 9 1.02 9 0 9 C0 6.03 0 3.06 0 0 Z " fill="#BAA2A2" transform="translate(27,108)"/>
<path d="M0 0 C1.98 0 3.96 0 6 0 C6 1.98 6 3.96 6 6 C5.01 6 4.02 6 3 6 C3 5.01 3 4.02 3 3 C2.01 3 1.02 3 0 3 C0 2.01 0 1.02 0 0 Z " fill="#5E5D68" transform="translate(39,96)"/>
<path d="M0 0 C0.66 0 1.32 0 2 0 C2.33 3.96 2.66 7.92 3 12 C2.01 12 1.02 12 0 12 C0 8.04 0 4.08 0 0 Z " fill="#E9D6D6" transform="translate(96,84)"/>
<path d="M0 0 C0.99 0 1.98 0 3 0 C3 1.98 3 3.96 3 6 C1.02 6 -0.96 6 -3 6 C-3 5.01 -3 4.02 -3 3 C-2.01 3 -1.02 3 0 3 C0 2.01 0 1.02 0 0 Z " fill="#613023" transform="translate(42,90)"/>
<path d="M0 0 C1.98 0 3.96 0 6 0 C6 1.98 6 3.96 6 6 C5.01 6 4.02 6 3 6 C3 5.01 3 4.02 3 3 C2.01 3 1.02 3 0 3 C0 2.01 0 1.02 0 0 Z " fill="#5F5D68" transform="translate(33,90)"/>
<path d="M0 0 C0.99 0 1.98 0 3 0 C3 0.99 3 1.98 3 3 C3.99 3 4.98 3 6 3 C6 3.99 6 4.98 6 6 C4.02 6 2.04 6 0 6 C0 4.02 0 2.04 0 0 Z " fill="#DBC7C1" transform="translate(60,84)"/>
<path d="M0 0 C1.98 0 3.96 0 6 0 C6 1.98 6 3.96 6 6 C5.01 6 4.02 6 3 6 C3 5.01 3 4.02 3 3 C2.01 3 1.02 3 0 3 C0 2.01 0 1.02 0 0 Z " fill="#BDA199" transform="translate(54,81)"/>
<path d="M0 0 C2.97 0 5.94 0 9 0 C9 0.99 9 1.98 9 3 C6.03 3 3.06 3 0 3 C0 2.01 0 1.02 0 0 Z " fill="#E2D2CD" transform="translate(63,81)"/>
<path d="M0 0 C0.33 1.32 0.66 2.64 1 4 C0.01 4 -0.98 4 -2 4 C-2 4.99 -2 5.98 -2 7 C-3.98 7 -5.96 7 -8 7 C-8 7.66 -8 8.32 -8 9 C-7.34 9 -6.68 9 -6 9 C-6 9.99 -6 10.98 -6 12 C-6.99 12 -7.98 12 -9 12 C-9 10.02 -9 8.04 -9 6 C-7.02 6 -5.04 6 -3 6 C-3 5.01 -3 4.02 -3 3 C-2.01 3 -1.02 3 0 3 C0 2.01 0 1.02 0 0 Z " fill="#ECE5E5" transform="translate(21,72)"/>
<path d="M0 0 C2.97 0 5.94 0 9 0 C9 0.99 9 1.98 9 3 C6.03 3 3.06 3 0 3 C0 2.01 0 1.02 0 0 Z " fill="#7B4C3E" transform="translate(69,75)"/>
<path d="M0 0 C2.97 0 5.94 0 9 0 C9 0.99 9 1.98 9 3 C6.03 3 3.06 3 0 3 C0 2.01 0 1.02 0 0 Z " fill="#2A120F" transform="translate(60,75)"/>
<path d="M0 0 C2.97 0 5.94 0 9 0 C9 0.99 9 1.98 9 3 C6.03 3 3.06 3 0 3 C0 2.01 0 1.02 0 0 Z " fill="#5B2B1E" transform="translate(51,75)"/>
<path d="M0 0 C0.99 0 1.98 0 3 0 C3 2.97 3 5.94 3 9 C2.01 9 1.02 9 0 9 C0 6.03 0 3.06 0 0 Z " fill="#6E3D30" transform="translate(27,72)"/>
<path d="M0 0 C2.97 0 5.94 0 9 0 C9 0.99 9 1.98 9 3 C6.03 3 3.06 3 0 3 C0 2.01 0 1.02 0 0 Z " fill="#C79D90" transform="translate(54,69)"/>
<path d="M0 0 C2.97 0 5.94 0 9 0 C9 0.99 9 1.98 9 3 C6.03 3 3.06 3 0 3 C0 2.01 0 1.02 0 0 Z " fill="#B69A92" transform="translate(78,63)"/>
<path d="M0 0 C1.98 0 3.96 0 6 0 C6 0.99 6 1.98 6 3 C5.01 3 4.02 3 3 3 C3 3.99 3 4.98 3 6 C2.01 6 1.02 6 0 6 C0 4.02 0 2.04 0 0 Z " fill="#09080B" transform="translate(24,63)"/>
<path d="M0 0 C0.99 0 1.98 0 3 0 C3 2.97 3 5.94 3 9 C2.01 9 1.02 9 0 9 C0 6.03 0 3.06 0 0 Z " fill="#AB877D" transform="translate(87,60)"/>
<path d="M0 0 C2.97 0 5.94 0 9 0 C9 0.99 9 1.98 9 3 C6.03 3 3.06 3 0 3 C0 2.01 0 1.02 0 0 Z " fill="#524F47" transform="translate(57,60)"/>
<path d="M0 0 C0.99 0 1.98 0 3 0 C3 2.97 3 5.94 3 9 C2.01 9 1.02 9 0 9 C0 6.03 0 3.06 0 0 Z " fill="#0E70AB" transform="translate(93,48)"/>
<path d="M0 0 C1.98 0 3.96 0 6 0 C6 1.98 6 3.96 6 6 C5.01 6 4.02 6 3 6 C3 5.01 3 4.02 3 3 C2.01 3 1.02 3 0 3 C0 2.01 0 1.02 0 0 Z " fill="#1A7CB7" transform="translate(27,45)"/>
<path d="M0 0 C1.98 0 3.96 0 6 0 C6 1.98 6 3.96 6 6 C5.01 6 4.02 6 3 6 C3 5.01 3 4.02 3 3 C2.01 3 1.02 3 0 3 C0 2.01 0 1.02 0 0 Z " fill="#495C70" transform="translate(45,42)"/>
<path d="M0 0 C0.99 0 1.98 0 3 0 C3 2.97 3 5.94 3 9 C2.01 9 1.02 9 0 9 C0 6.03 0 3.06 0 0 Z " fill="#308BC2" transform="translate(33,36)"/>
<path d="M0 0 C1.98 0 3.96 0 6 0 C6 0.99 6 1.98 6 3 C5.01 3 4.02 3 3 3 C3 3.99 3 4.98 3 6 C2.01 6 1.02 6 0 6 C0 4.02 0 2.04 0 0 Z " fill="#0F73AF" transform="translate(24,39)"/>
<path d="M0 0 C1.98 0 3.96 0 6 0 C6 1.98 6 3.96 6 6 C5.01 6 4.02 6 3 6 C3 5.01 3 4.02 3 3 C2.01 3 1.02 3 0 3 C0 2.01 0 1.02 0 0 Z " fill="#0F537C" transform="translate(93,33)"/>
<path d="M0 0 C2.97 0 5.94 0 9 0 C9 0.99 9 1.98 9 3 C6.03 3 3.06 3 0 3 C0 2.01 0 1.02 0 0 Z " fill="#5BAFE1" transform="translate(24,33)"/>
<path d="M0 0 C1.98 0 3.96 0 6 0 C6 1.98 6 3.96 6 6 C5.01 6 4.02 6 3 6 C3 5.01 3 4.02 3 3 C2.01 3 1.02 3 0 3 C0 2.01 0 1.02 0 0 Z " fill="#050506" transform="translate(87,30)"/>
<path d="M0 0 C2.97 0 5.94 0 9 0 C9 0.99 9 1.98 9 3 C6.03 3 3.06 3 0 3 C0 2.01 0 1.02 0 0 Z " fill="#120E0E" transform="translate(24,30)"/>
<path d="M0 0 C0.99 0 1.98 0 3 0 C3 1.98 3 3.96 3 6 C1.02 6 -0.96 6 -3 6 C-3 5.01 -3 4.02 -3 3 C-2.01 3 -1.02 3 0 3 C0 2.01 0 1.02 0 0 Z " fill="#1E1514" transform="translate(36,24)"/>
<path d="M0 0 C0.33 0.66 0.66 1.32 1 2 C5.62 2 10.24 2 15 2 C15 1.34 15 0.68 15 0 C15.99 0 16.98 0 18 0 C18 0.99 18 1.98 18 3 C12.06 3 6.12 3 0 3 C0 2.01 0 1.02 0 0 Z " fill="#AE9087" transform="translate(66,96)"/>
<path d="M0 0 C0.33 0 0.66 0 1 0 C1 3.3 1 6.6 1 10 C-0.32 10 -1.64 10 -3 10 C-3 8.35 -3 6.7 -3 5 C-2.34 4.67 -1.68 4.34 -1 4 C-0.34786708 1.97536745 -0.34786708 1.97536745 0 0 Z " fill="#0F75B4" transform="translate(28,52)"/>
<path d="M0 0 C0.99 0 1.98 0 3 0 C3 1.65 3 3.3 3 5 C0.03 5 -2.94 5 -6 5 C-3 3 -3 3 0 3 C0 2.01 0 1.02 0 0 Z " fill="#171210" transform="translate(63,48)"/>
<path d="M0 0 C1.65 0 3.3 0 5 0 C5 1.98 5 3.96 5 6 C4.01 6 3.02 6 2 6 C2 5.01 2 4.02 2 3 C1.34 3 0.68 3 0 3 C0 2.01 0 1.02 0 0 Z " fill="#241F1C" transform="translate(37,36)"/>
<path d="M0 0 C3.96 0 7.92 0 12 0 C11.67 0.99 11.34 1.98 11 3 C11 2.34 11 1.68 11 1 C8.69 1 6.38 1 4 1 C4 1.66 4 2.32 4 3 C2.68 3 1.36 3 0 3 C0 2.01 0 1.02 0 0 Z " fill="#1F6792" transform="translate(21,36)"/>
<path d="M0 0 C2.31 0 4.62 0 7 0 C7 1.65 7 3.3 7 5 C6.01 5 5.02 5 4 5 C4 3.68 4 2.36 4 1 C2.68 0.67 1.36 0.34 0 0 Z " fill="#2C2926" transform="translate(56,46)"/>
<path d="M0 0 C0.99 0 1.98 0 3 0 C3 1.98 3 3.96 3 6 C2.01 6 1.02 6 0 6 C0 4.02 0 2.04 0 0 Z " fill="#0D0A0B" transform="translate(111,111)"/>
<path d="M0 0 C0.99 0 1.98 0 3 0 C3 0.66 3 1.32 3 2 C5.97 2 8.94 2 12 2 C12 2.33 12 2.66 12 3 C8.04 3 4.08 3 0 3 C0 2.01 0 1.02 0 0 Z " fill="#5A2F25" transform="translate(54,105)"/>
<path d="M0 0 C1.98 0 3.96 0 6 0 C6 0.99 6 1.98 6 3 C4.02 3 2.04 3 0 3 C0 2.01 0 1.02 0 0 Z " fill="#63565C" transform="translate(45,102)"/>
<path d="M0 0 C1.98 0 3.96 0 6 0 C6 0.99 6 1.98 6 3 C4.02 3 2.04 3 0 3 C0 2.01 0 1.02 0 0 Z " fill="#0B0A0D" transform="translate(60,102)"/>
<path d="M0 0 C0.99 0 1.98 0 3 0 C3 1.98 3 3.96 3 6 C2.01 6 1.02 6 0 6 C0 4.02 0 2.04 0 0 Z " fill="#E9D5D5" transform="translate(27,102)"/>
<path d="M0 0 C1.98 0 3.96 0 6 0 C6 0.99 6 1.98 6 3 C4.02 3 2.04 3 0 3 C0 2.01 0 1.02 0 0 Z " fill="#643326" transform="translate(45,99)"/>
<path d="M0 0 C0.99 0 1.98 0 3 0 C3 1.98 3 3.96 3 6 C2.01 6 1.02 6 0 6 C0 4.02 0 2.04 0 0 Z " fill="#0A0909" transform="translate(87,93)"/>
<path d="M0 0 C0.99 0 1.98 0 3 0 C3 1.98 3 3.96 3 6 C2.01 6 1.02 6 0 6 C0 4.02 0 2.04 0 0 Z " fill="#E9D6D6" transform="translate(24,96)"/>
<path d="M0 0 C1.98 0 3.96 0 6 0 C6 0.99 6 1.98 6 3 C4.02 3 2.04 3 0 3 C0 2.01 0 1.02 0 0 Z " fill="#9F6147" transform="translate(66,93)"/>
<path d="M0 0 C1.98 0 3.96 0 6 0 C6 0.99 6 1.98 6 3 C4.02 3 2.04 3 0 3 C0 2.01 0 1.02 0 0 Z " fill="#B69990" transform="translate(60,93)"/>
<path d="M0 0 C0.99 0 1.98 0 3 0 C3 1.98 3 3.96 3 6 C2.01 6 1.02 6 0 6 C0 4.02 0 2.04 0 0 Z " fill="#0F0D0E" transform="translate(111,90)"/>
<path d="M0 0 C0.99 0 1.98 0 3 0 C3 1.98 3 3.96 3 6 C2.01 6 1.02 6 0 6 C0 4.02 0 2.04 0 0 Z " fill="#E9D6D6" transform="translate(21,90)"/>
<path d="M0 0 C1.98 0 3.96 0 6 0 C6 0.99 6 1.98 6 3 C4.02 3 2.04 3 0 3 C0 2.01 0 1.02 0 0 Z " fill="#A06248" transform="translate(60,90)"/>
<path d="M0 0 C1.98 0 3.96 0 6 0 C6 0.99 6 1.98 6 3 C4.02 3 2.04 3 0 3 C0 2.01 0 1.02 0 0 Z " fill="#D7C1BB" transform="translate(66,90)"/>
<path d="M0 0 C1.98 0 3.96 0 6 0 C6 0.99 6 1.98 6 3 C4.02 3 2.04 3 0 3 C0 2.01 0 1.02 0 0 Z " fill="#F4EAEA" transform="translate(0,87)"/>
<path d="M0 0 C1.98 0 3.96 0 6 0 C6 0.99 6 1.98 6 3 C4.02 3 2.04 3 0 3 C0 2.01 0 1.02 0 0 Z " fill="#9F7160" transform="translate(51,84)"/>
<path d="M0 0 C0.99 0 1.98 0 3 0 C3 1.98 3 3.96 3 6 C2.01 6 1.02 6 0 6 C0 4.02 0 2.04 0 0 Z " fill="#CDB4AD" transform="translate(75,84)"/>
<path d="M0 0 C1.98 0 3.96 0 6 0 C6 0.99 6 1.98 6 3 C4.02 3 2.04 3 0 3 C0 2.01 0 1.02 0 0 Z " fill="#0F0C0E" transform="translate(99,81)"/>
<path d="M0 0 C0.99 0 1.98 0 3 0 C3 1.98 3 3.96 3 6 C2.01 6 1.02 6 0 6 C0 4.02 0 2.04 0 0 Z " fill="#0D0C0C" transform="translate(90,81)"/>
<path d="M0 0 C0.99 0 1.98 0 3 0 C3 1.98 3 3.96 3 6 C2.01 6 1.02 6 0 6 C0 4.02 0 2.04 0 0 Z " fill="#536981" transform="translate(27,81)"/>
<path d="M0 0 C1.98 0 3.96 0 6 0 C6 0.99 6 1.98 6 3 C4.02 3 2.04 3 0 3 C0 2.01 0 1.02 0 0 Z " fill="#0A0808" transform="translate(0,81)"/>
<path d="M0 0 C1.98 0 3.96 0 6 0 C6 0.99 6 1.98 6 3 C4.02 3 2.04 3 0 3 C0 2.01 0 1.02 0 0 Z " fill="#2A0F10" transform="translate(54,78)"/>
<path d="M0 0 C1.98 0 3.96 0 6 0 C6 0.99 6 1.98 6 3 C4.02 3 2.04 3 0 3 C0 2.01 0 1.02 0 0 Z " fill="#0C0908" transform="translate(6,78)"/>
<path d="M0 0 C1.98 0 3.96 0 6 0 C6 0.99 6 1.98 6 3 C4.02 3 2.04 3 0 3 C0 2.01 0 1.02 0 0 Z " fill="#1A0B0B" transform="translate(78,75)"/>
<path d="M0 0 C0.99 0 1.98 0 3 0 C3 1.98 3 3.96 3 6 C2.01 6 1.02 6 0 6 C0 4.02 0 2.04 0 0 Z " fill="#0B090C" transform="translate(36,72)"/>
<path d="M0 0 C1.98 0 3.96 0 6 0 C6 0.99 6 1.98 6 3 C4.02 3 2.04 3 0 3 C0 2.01 0 1.02 0 0 Z " fill="#0C0908" transform="translate(12,75)"/>
<path d="M0 0 C1.98 0 3.96 0 6 0 C6 0.99 6 1.98 6 3 C4.02 3 2.04 3 0 3 C0 2.01 0 1.02 0 0 Z " fill="#5D2C1F" transform="translate(45,72)"/>
<path d="M0 0 C0.99 0 1.98 0 3 0 C3 1.98 3 3.96 3 6 C2.01 6 1.02 6 0 6 C0 4.02 0 2.04 0 0 Z " fill="#7C4B3E" transform="translate(63,69)"/>
<path d="M0 0 C0.99 0 1.98 0 3 0 C3 1.98 3 3.96 3 6 C2.01 6 1.02 6 0 6 C0 4.02 0 2.04 0 0 Z " fill="#9D5F45" transform="translate(81,69)"/>
<path d="M0 0 C0.99 0 1.98 0 3 0 C3 1.98 3 3.96 3 6 C2.01 6 1.02 6 0 6 C0 4.02 0 2.04 0 0 Z " fill="#C79585" transform="translate(78,69)"/>
<path d="M0 0 C0.99 0 1.98 0 3 0 C3 1.98 3 3.96 3 6 C2.01 6 1.02 6 0 6 C0 4.02 0 2.04 0 0 Z " fill="#0B090D" transform="translate(33,66)"/>
<path d="M0 0 C0.99 0 1.98 0 3 0 C3 1.98 3 3.96 3 6 C2.01 6 1.02 6 0 6 C0 4.02 0 2.04 0 0 Z " fill="#482015" transform="translate(30,66)"/>
<path d="M0 0 C0.99 0 1.98 0 3 0 C3 1.98 3 3.96 3 6 C2.01 6 1.02 6 0 6 C0 4.02 0 2.04 0 0 Z " fill="#2B2A27" transform="translate(84,57)"/>
<path d="M0 0 C1.98 0 3.96 0 6 0 C6 0.99 6 1.98 6 3 C4.02 3 2.04 3 0 3 C0 2.01 0 1.02 0 0 Z " fill="#524E47" transform="translate(78,60)"/>
<path d="M0 0 C0.99 0 1.98 0 3 0 C3 1.98 3 3.96 3 6 C2.01 6 1.02 6 0 6 C0 4.02 0 2.04 0 0 Z " fill="#0C0B10" transform="translate(21,57)"/>
<path d="M0 0 C1.98 0 3.96 0 6 0 C6 0.99 6 1.98 6 3 C4.02 3 2.04 3 0 3 C0 2.01 0 1.02 0 0 Z " fill="#A1837C" transform="translate(69,57)"/>
<path d="M0 0 C1.98 0 3.96 0 6 0 C6 0.99 6 1.98 6 3 C4.02 3 2.04 3 0 3 C0 2.01 0 1.02 0 0 Z " fill="#18B0DC" transform="translate(81,54)"/>
<path d="M0 0 C0.99 0 1.98 0 3 0 C3 1.98 3 3.96 3 6 C2.01 6 1.02 6 0 6 C0 4.02 0 2.04 0 0 Z " fill="#241F1D" transform="translate(75,54)"/>
<path d="M0 0 C0.99 0 1.98 0 3 0 C3 1.98 3 3.96 3 6 C2.01 6 1.02 6 0 6 C0 4.02 0 2.04 0 0 Z " fill="#241F1D" transform="translate(66,54)"/>
<path d="M0 0 C0.99 0 1.98 0 3 0 C3 1.98 3 3.96 3 6 C2.01 6 1.02 6 0 6 C0 4.02 0 2.04 0 0 Z " fill="#0E71AD" transform="translate(21,51)"/>
<path d="M0 0 C0.99 0 1.98 0 3 0 C3 1.98 3 3.96 3 6 C2.01 6 1.02 6 0 6 C0 4.02 0 2.04 0 0 Z " fill="#0B0C10" transform="translate(18,51)"/>
<path d="M0 0 C1.98 0 3.96 0 6 0 C6 0.99 6 1.98 6 3 C4.02 3 2.04 3 0 3 C0 2.01 0 1.02 0 0 Z " fill="#151211" transform="translate(48,48)"/>
<path d="M0 0 C0.99 0 1.98 0 3 0 C3 1.98 3 3.96 3 6 C2.01 6 1.02 6 0 6 C0 4.02 0 2.04 0 0 Z " fill="#4F342C" transform="translate(45,45)"/>
<path d="M0 0 C1.98 0 3.96 0 6 0 C6 0.99 6 1.98 6 3 C4.02 3 2.04 3 0 3 C0 2.01 0 1.02 0 0 Z " fill="#414B55" transform="translate(81,48)"/>
<path d="M0 0 C1.98 0 3.96 0 6 0 C6 0.99 6 1.98 6 3 C4.02 3 2.04 3 0 3 C0 2.01 0 1.02 0 0 Z " fill="#AA8D85" transform="translate(66,48)"/>
<path d="M0 0 C1.98 0 3.96 0 6 0 C6 0.99 6 1.98 6 3 C4.02 3 2.04 3 0 3 C0 2.01 0 1.02 0 0 Z " fill="#414B55" transform="translate(54,48)"/>
<path d="M0 0 C1.98 0 3.96 0 6 0 C6 0.99 6 1.98 6 3 C4.02 3 2.04 3 0 3 C0 2.01 0 1.02 0 0 Z " fill="#77493B" transform="translate(69,45)"/>
<path d="M0 0 C0.99 0 1.98 0 3 0 C3 1.98 3 3.96 3 6 C2.01 6 1.02 6 0 6 C0 4.02 0 2.04 0 0 Z " fill="#22262A" transform="translate(33,45)"/>
<path d="M0 0 C0.99 0 1.98 0 3 0 C3 1.98 3 3.96 3 6 C2.01 6 1.02 6 0 6 C0 4.02 0 2.04 0 0 Z " fill="#33383D" transform="translate(51,42)"/>
<path d="M0 0 C1.98 0 3.96 0 6 0 C6 0.99 6 1.98 6 3 C4.02 3 2.04 3 0 3 C0 2.01 0 1.02 0 0 Z " fill="#040303" transform="translate(69,42)"/>
<path d="M0 0 C0.99 0 1.98 0 3 0 C3 1.98 3 3.96 3 6 C2.01 6 1.02 6 0 6 C0 4.02 0 2.04 0 0 Z " fill="#34322D" transform="translate(93,39)"/>
<path d="M0 0 C0.99 0 1.98 0 3 0 C3 1.98 3 3.96 3 6 C2.01 6 1.02 6 0 6 C0 4.02 0 2.04 0 0 Z " fill="#030303" transform="translate(90,39)"/>
<path d="M0 0 C1.98 0 3.96 0 6 0 C6 0.99 6 1.98 6 3 C4.02 3 2.04 3 0 3 C0 2.01 0 1.02 0 0 Z " fill="#363430" transform="translate(69,39)"/>
<path d="M0 0 C0.99 0 1.98 0 3 0 C3 1.98 3 3.96 3 6 C2.01 6 1.02 6 0 6 C0 4.02 0 2.04 0 0 Z " fill="#252323" transform="translate(48,36)"/>
<path d="M0 0 C1.98 0 3.96 0 6 0 C6 0.99 6 1.98 6 3 C4.02 3 2.04 3 0 3 C0 2.01 0 1.02 0 0 Z " fill="#060505" transform="translate(66,33)"/>
<path d="M0 0 C1.98 0 3.96 0 6 0 C6 0.99 6 1.98 6 3 C4.02 3 2.04 3 0 3 C0 2.01 0 1.02 0 0 Z " fill="#060505" transform="translate(60,30)"/>
<path d="M0 0 C1.98 0 3.96 0 6 0 C6 0.99 6 1.98 6 3 C4.02 3 2.04 3 0 3 C0 2.01 0 1.02 0 0 Z " fill="#475768" transform="translate(33,30)"/>
<path d="M0 0 C1.98 0 3.96 0 6 0 C6 0.99 6 1.98 6 3 C4.02 3 2.04 3 0 3 C0 2.01 0 1.02 0 0 Z " fill="#0B0A0D" transform="translate(93,27)"/>
<path d="M0 0 C1.98 0 3.96 0 6 0 C6 0.99 6 1.98 6 3 C4.02 3 2.04 3 0 3 C0 2.01 0 1.02 0 0 Z " fill="#BF785B" transform="translate(75,24)"/>
<path d="M0 0 C1.98 0 3.96 0 6 0 C6 0.99 6 1.98 6 3 C4.02 3 2.04 3 0 3 C0 2.01 0 1.02 0 0 Z " fill="#0B0504" transform="translate(39,21)"/>
<path d="M0 0 C1.98 0 3.96 0 6 0 C6 0.99 6 1.98 6 3 C4.02 3 2.04 3 0 3 C0 2.01 0 1.02 0 0 Z " fill="#0C0808" transform="translate(75,21)"/>
<path d="M0 0 C1.98 0 3.96 0 6 0 C6 0.99 6 1.98 6 3 C4.02 3 2.04 3 0 3 C0 2.01 0 1.02 0 0 Z " fill="#0B0605" transform="translate(57,21)"/>
</svg>
