<?xml version="1.0" encoding="UTF-8" standalone="no"?><svg xmlns="http://www.w3.org/2000/svg" xmlns:xlink="http://www.w3.org/1999/xlink" data-name="Circular Glyph" fill="#ffffff" height="64" preserveAspectRatio="xMidYMid meet" version="1" viewBox="0.0 0.0 64.0 64.0" width="64" zoomAndPan="magnify"><g id="change1_1"><path d="M32,0A32,32,0,1,0,64,32,32.004,32.004,0,0,0,32,0Zm0,12a9.815,9.815,0,1,1-5.21,18.13C18.55,24.91,22.12,12.1,32,12ZM43.51,52H20.49a7.26377,7.26377,0,0,1-7.25-7.26c0-6.15,4.53-11.46,11.03-13.85a11.968,11.968,0,0,0,15.46,0c6.5,2.39,11.03,7.69995,11.03,13.85A7.26377,7.26377,0,0,1,43.51,52Z"/></g></svg>