<?xml version="1.0" encoding="UTF-8" standalone="no"?><svg xmlns="http://www.w3.org/2000/svg" xmlns:xlink="http://www.w3.org/1999/xlink" fill="#ffffff" height="512" preserveAspectRatio="xMidYMid meet" version="1" viewBox="0.0 0.0 512.0 512.0" width="512" zoomAndPan="magnify"><g id="change1_1"><path d="M256,0C114.615,0,0,114.615,0,256s114.615,256,256,256s256-114.615,256-256S397.385,0,256,0z M412,270.859 c0,5.592-3.806,10.467-9.232,11.823l-29.741,7.435c-2.502,8.597-5.924,16.802-10.156,24.5l15.777,26.295 c2.877,4.795,2.122,10.934-1.833,14.888l-21.014,21.014c-3.954,3.955-10.093,4.71-14.888,1.833l-26.295-15.777 c-7.698,4.231-15.903,7.654-24.5,10.156l-7.435,29.741c-1.356,5.426-6.231,9.232-11.824,9.232h-29.719 c-5.592,0-10.467-3.806-11.824-9.232l-7.435-29.741c-8.597-2.502-16.802-5.925-24.5-10.156l-26.295,15.777 c-4.795,2.877-10.934,2.122-14.888-1.833l-21.014-21.014c-3.954-3.954-4.71-10.093-1.833-14.888l15.777-26.295 c-4.231-7.698-7.654-15.903-10.156-24.5l-29.741-7.435c-5.426-1.356-9.232-6.231-9.232-11.823v-29.719 c0-5.592,3.806-10.467,9.232-11.823l29.741-7.435c2.502-8.597,5.924-16.802,10.156-24.5l-15.777-26.295 c-2.877-4.795-2.122-10.934,1.833-14.888l21.014-21.014c3.954-3.955,10.093-4.71,14.888-1.833l26.295,15.777 c7.698-4.231,15.903-7.654,24.5-10.156l7.435-29.741c1.356-5.426,6.231-9.232,11.824-9.232h29.719 c5.592,0,10.467,3.806,11.824,9.232l7.435,29.741c8.597,2.502,16.802,5.925,24.5,10.156l26.295-15.777 c4.795-2.877,10.934-2.122,14.888,1.833l21.014,21.014c3.954,3.954,4.71,10.093,1.833,14.888l-15.777,26.295 c4.231,7.698,7.654,15.903,10.156,24.5l29.741,7.435c5.426,1.356,9.232,6.231,9.232,11.823V270.859z"/><circle cx="256" cy="256" r="48.75"/></g></svg>