<?xml version="1.0" encoding="UTF-8" standalone="no"?><svg xmlns="http://www.w3.org/2000/svg" xmlns:xlink="http://www.w3.org/1999/xlink" data-name="Bahan copy 3" fill="#000000" height="64" preserveAspectRatio="xMidYMid meet" version="1" viewBox="0.0 0.0 64.0 64.0" width="64" zoomAndPan="magnify"><g id="change1_1"><path d="M22.87,44.56h-4a.715.715,0,0,0,0,1.43h4a.715.715,0,1,0,0-1.43Zm.37-11.27H18.87a.71.71,0,1,0,0,1.42h4.37a.71006.71006,0,1,0,0-1.42Zm1.68,7.27H18.87a.70633.70633,0,0,0-.71.71.71487.71487,0,0,0,.71.72h6.05A.71507.71507,0,0,0,24.92,40.56Zm.57-11.27H18.87a.7101.7101,0,0,0,0,1.42h6.62A.71.71,0,0,0,25.49,29.29Zm.76-10.8-.98.66a2.15509,2.15509,0,0,0-2.15-2.31h-3.5a2.13605,2.13605,0,0,0-2.14,2.14v3.5a2.14246,2.14246,0,0,0,2.14,2.14h3.5a2.14461,2.14461,0,0,0,2.15-2.14V20.87l1.77-1.18A.71856.71856,0,0,0,26.25,18.49Zm-2.41,1.62L22.47,21.02l-.9-1.71a.71575.71575,0,0,0-1.27.66l1.27,2.42a.74276.74276,0,0,0,.46.35c.46.18,1.23-.58,1.81-.91v.65a.71493.71493,0,0,1-.72.71h-3.5a.71275.71275,0,0,1-.71-.71v-3.5a.71488.71488,0,0,1,.71-.72h3.5a.717.717,0,0,1,.72.72Zm12.93,1.9H29.04a.71507.71507,0,0,0,0,1.43h7.73A.71507.71507,0,0,0,36.77,22.01Zm3.97-4H29.04a.715.715,0,0,0,0,1.43h11.7A.715.715,0,0,0,40.74,18.01Zm0,0H29.04a.715.715,0,0,0,0,1.43h11.7A.715.715,0,0,0,40.74,18.01Zm-3.97,4H29.04a.71507.71507,0,0,0,0,1.43h7.73A.71507.71507,0,0,0,36.77,22.01ZM26.25,18.49l-.98.66a2.15509,2.15509,0,0,0-2.15-2.31h-3.5a2.13605,2.13605,0,0,0-2.14,2.14v3.5a2.14246,2.14246,0,0,0,2.14,2.14h3.5a2.14461,2.14461,0,0,0,2.15-2.14V20.87l1.77-1.18A.71856.71856,0,0,0,26.25,18.49Zm-2.41,1.62L22.47,21.02l-.9-1.71a.71575.71575,0,0,0-1.27.66l1.27,2.42a.74276.74276,0,0,0,.46.35c.46.18,1.23-.58,1.81-.91v.65a.71493.71493,0,0,1-.72.71h-3.5a.71275.71275,0,0,1-.71-.71v-3.5a.71488.71488,0,0,1,.71-.72h3.5a.717.717,0,0,1,.72.72Zm1.65,9.18H18.87a.7101.7101,0,0,0,0,1.42h6.62A.71.71,0,0,0,25.49,29.29Zm-.57,11.27H18.87a.70633.70633,0,0,0-.71.71.71487.71487,0,0,0,.71.72h6.05A.71507.71507,0,0,0,24.92,40.56Zm-1.68-7.27H18.87a.71.71,0,1,0,0,1.42h4.37a.71006.71006,0,1,0,0-1.42Zm-.37,11.27h-4a.715.715,0,0,0,0,1.43h4a.715.715,0,1,0,0-1.43Zm0,0h-4a.715.715,0,0,0,0,1.43h4a.715.715,0,1,0,0-1.43Zm.37-11.27H18.87a.71.71,0,1,0,0,1.42h4.37a.71006.71006,0,1,0,0-1.42Zm1.68,7.27H18.87a.70633.70633,0,0,0-.71.71.71487.71487,0,0,0,.71.72h6.05A.71507.71507,0,0,0,24.92,40.56Zm.57-11.27H18.87a.7101.7101,0,0,0,0,1.42h6.62A.71.71,0,0,0,25.49,29.29Zm.76-10.8-.98.66a2.15509,2.15509,0,0,0-2.15-2.31h-3.5a2.13605,2.13605,0,0,0-2.14,2.14v3.5a2.14246,2.14246,0,0,0,2.14,2.14h3.5a2.14461,2.14461,0,0,0,2.15-2.14V20.87l1.77-1.18A.71856.71856,0,0,0,26.25,18.49Zm-2.41,1.62L22.47,21.02l-.9-1.71a.71575.71575,0,0,0-1.27.66l1.27,2.42a.74276.74276,0,0,0,.46.35c.46.18,1.23-.58,1.81-.91v.65a.71493.71493,0,0,1-.72.71h-3.5a.71275.71275,0,0,1-.71-.71v-3.5a.71488.71488,0,0,1,.71-.72h3.5a.717.717,0,0,1,.72.72Zm12.93,1.9H29.04a.71507.71507,0,0,0,0,1.43h7.73A.71507.71507,0,0,0,36.77,22.01Zm3.97-4H29.04a.715.715,0,0,0,0,1.43h11.7A.715.715,0,0,0,40.74,18.01Zm0,0H29.04a.715.715,0,0,0,0,1.43h11.7A.715.715,0,0,0,40.74,18.01Zm-3.97,4H29.04a.71507.71507,0,0,0,0,1.43h7.73A.71507.71507,0,0,0,36.77,22.01ZM26.25,18.49l-.98.66a2.15509,2.15509,0,0,0-2.15-2.31h-3.5a2.13605,2.13605,0,0,0-2.14,2.14v3.5a2.14246,2.14246,0,0,0,2.14,2.14h3.5a2.14461,2.14461,0,0,0,2.15-2.14V20.87l1.77-1.18A.71856.71856,0,0,0,26.25,18.49Zm-2.41,1.62L22.47,21.02l-.9-1.71a.71575.71575,0,0,0-1.27.66l1.27,2.42a.74276.74276,0,0,0,.46.35c.46.18,1.23-.58,1.81-.91v.65a.71493.71493,0,0,1-.72.71h-3.5a.71275.71275,0,0,1-.71-.71v-3.5a.71488.71488,0,0,1,.71-.72h3.5a.717.717,0,0,1,.72.72Zm1.65,9.18H18.87a.7101.7101,0,0,0,0,1.42h6.62A.71.71,0,0,0,25.49,29.29Zm-.57,11.27H18.87a.70633.70633,0,0,0-.71.71.71487.71487,0,0,0,.71.72h6.05A.71507.71507,0,0,0,24.92,40.56Zm-1.68-7.27H18.87a.71.71,0,1,0,0,1.42h4.37a.71006.71006,0,1,0,0-1.42Zm-.37,11.27h-4a.715.715,0,0,0,0,1.43h4a.715.715,0,1,0,0-1.43Zm0,0h-4a.715.715,0,0,0,0,1.43h4a.715.715,0,1,0,0-1.43Zm.37-11.27H18.87a.71.71,0,1,0,0,1.42h4.37a.71006.71006,0,1,0,0-1.42Zm1.68,7.27H18.87a.70633.70633,0,0,0-.71.71.71487.71487,0,0,0,.71.72h6.05A.71507.71507,0,0,0,24.92,40.56Zm.57-11.27H18.87a.7101.7101,0,0,0,0,1.42h6.62A.71.71,0,0,0,25.49,29.29Zm.76-10.8-.98.66a2.15509,2.15509,0,0,0-2.15-2.31h-3.5a2.13605,2.13605,0,0,0-2.14,2.14v3.5a2.14246,2.14246,0,0,0,2.14,2.14h3.5a2.14461,2.14461,0,0,0,2.15-2.14V20.87l1.77-1.18A.71856.71856,0,0,0,26.25,18.49Zm-2.41,1.62L22.47,21.02l-.9-1.71a.71575.71575,0,0,0-1.27.66l1.27,2.42a.74276.74276,0,0,0,.46.35c.46.18,1.23-.58,1.81-.91v.65a.71493.71493,0,0,1-.72.71h-3.5a.71275.71275,0,0,1-.71-.71v-3.5a.71488.71488,0,0,1,.71-.72h3.5a.717.717,0,0,1,.72.72Zm12.93,1.9H29.04a.71507.71507,0,0,0,0,1.43h7.73A.71507.71507,0,0,0,36.77,22.01Zm3.97-4H29.04a.715.715,0,0,0,0,1.43h11.7A.715.715,0,0,0,40.74,18.01Zm0,0H29.04a.715.715,0,0,0,0,1.43h11.7A.715.715,0,0,0,40.74,18.01Zm-3.97,4H29.04a.71507.71507,0,0,0,0,1.43h7.73A.71507.71507,0,0,0,36.77,22.01ZM26.25,18.49l-.98.66a2.15509,2.15509,0,0,0-2.15-2.31h-3.5a2.13605,2.13605,0,0,0-2.14,2.14v3.5a2.14246,2.14246,0,0,0,2.14,2.14h3.5a2.14461,2.14461,0,0,0,2.15-2.14V20.87l1.77-1.18A.71856.71856,0,0,0,26.25,18.49Zm-2.41,1.62L22.47,21.02l-.9-1.71a.71575.71575,0,0,0-1.27.66l1.27,2.42a.74276.74276,0,0,0,.46.35c.46.18,1.23-.58,1.81-.91v.65a.71493.71493,0,0,1-.72.71h-3.5a.71275.71275,0,0,1-.71-.71v-3.5a.71488.71488,0,0,1,.71-.72h3.5a.717.717,0,0,1,.72.72Zm1.65,9.18H18.87a.7101.7101,0,0,0,0,1.42h6.62A.71.71,0,0,0,25.49,29.29Zm-.57,11.27H18.87a.70633.70633,0,0,0-.71.71.71487.71487,0,0,0,.71.72h6.05A.71507.71507,0,0,0,24.92,40.56Zm-1.68-7.27H18.87a.71.71,0,1,0,0,1.42h4.37a.71006.71006,0,1,0,0-1.42Zm-.37,11.27h-4a.715.715,0,0,0,0,1.43h4a.715.715,0,1,0,0-1.43Zm0,0h-4a.715.715,0,0,0,0,1.43h4a.715.715,0,1,0,0-1.43Zm.37-11.27H18.87a.71.71,0,1,0,0,1.42h4.37a.71006.71006,0,1,0,0-1.42Zm1.68,7.27H18.87a.70633.70633,0,0,0-.71.71.71487.71487,0,0,0,.71.72h6.05A.71507.71507,0,0,0,24.92,40.56Zm.57-11.27H18.87a.7101.7101,0,0,0,0,1.42h6.62A.71.71,0,0,0,25.49,29.29Zm.76-10.8-.98.66a2.15509,2.15509,0,0,0-2.15-2.31h-3.5a2.13605,2.13605,0,0,0-2.14,2.14v3.5a2.14246,2.14246,0,0,0,2.14,2.14h3.5a2.14461,2.14461,0,0,0,2.15-2.14V20.87l1.77-1.18A.71856.71856,0,0,0,26.25,18.49Zm-2.41,1.62L22.47,21.02l-.9-1.71a.71575.71575,0,0,0-1.27.66l1.27,2.42a.74276.74276,0,0,0,.46.35c.46.18,1.23-.58,1.81-.91v.65a.71493.71493,0,0,1-.72.71h-3.5a.71275.71275,0,0,1-.71-.71v-3.5a.71488.71488,0,0,1,.71-.72h3.5a.717.717,0,0,1,.72.72Zm12.93,1.9H29.04a.71507.71507,0,0,0,0,1.43h7.73A.71507.71507,0,0,0,36.77,22.01Zm3.97-4H29.04a.715.715,0,0,0,0,1.43h11.7A.715.715,0,0,0,40.74,18.01Zm0,0H29.04a.715.715,0,0,0,0,1.43h11.7A.715.715,0,0,0,40.74,18.01Zm-3.97,4H29.04a.71507.71507,0,0,0,0,1.43h7.73A.71507.71507,0,0,0,36.77,22.01ZM26.25,18.49l-.98.66a2.15509,2.15509,0,0,0-2.15-2.31h-3.5a2.13605,2.13605,0,0,0-2.14,2.14v3.5a2.14246,2.14246,0,0,0,2.14,2.14h3.5a2.14461,2.14461,0,0,0,2.15-2.14V20.87l1.77-1.18A.71856.71856,0,0,0,26.25,18.49Zm-2.41,1.62L22.47,21.02l-.9-1.71a.71575.71575,0,0,0-1.27.66l1.27,2.42a.74276.74276,0,0,0,.46.35c.46.18,1.23-.58,1.81-.91v.65a.71493.71493,0,0,1-.72.71h-3.5a.71275.71275,0,0,1-.71-.71v-3.5a.71488.71488,0,0,1,.71-.72h3.5a.717.717,0,0,1,.72.72Zm1.65,9.18H18.87a.7101.7101,0,0,0,0,1.42h6.62A.71.71,0,0,0,25.49,29.29Zm-.57,11.27H18.87a.70633.70633,0,0,0-.71.71.71487.71487,0,0,0,.71.72h6.05A.71507.71507,0,0,0,24.92,40.56Zm-1.68-7.27H18.87a.71.71,0,1,0,0,1.42h4.37a.71006.71006,0,1,0,0-1.42Zm-.37,11.27h-4a.715.715,0,0,0,0,1.43h4a.715.715,0,1,0,0-1.43Zm0,0h-4a.715.715,0,0,0,0,1.43h4a.715.715,0,1,0,0-1.43Zm.37-11.27H18.87a.71.71,0,1,0,0,1.42h4.37a.71006.71006,0,1,0,0-1.42Zm1.68,7.27H18.87a.70633.70633,0,0,0-.71.71.71487.71487,0,0,0,.71.72h6.05A.71507.71507,0,0,0,24.92,40.56Zm.57-11.27H18.87a.7101.7101,0,0,0,0,1.42h6.62A.71.71,0,0,0,25.49,29.29Zm.76-10.8-.98.66a2.15509,2.15509,0,0,0-2.15-2.31h-3.5a2.13605,2.13605,0,0,0-2.14,2.14v3.5a2.14246,2.14246,0,0,0,2.14,2.14h3.5a2.14461,2.14461,0,0,0,2.15-2.14V20.87l1.77-1.18A.71856.71856,0,0,0,26.25,18.49Zm-2.41,1.62L22.47,21.02l-.9-1.71a.71575.71575,0,0,0-1.27.66l1.27,2.42a.74276.74276,0,0,0,.46.35c.46.18,1.23-.58,1.81-.91v.65a.71493.71493,0,0,1-.72.71h-3.5a.71275.71275,0,0,1-.71-.71v-3.5a.71488.71488,0,0,1,.71-.72h3.5a.717.717,0,0,1,.72.72Zm12.93,1.9H29.04a.71507.71507,0,0,0,0,1.43h7.73A.71507.71507,0,0,0,36.77,22.01Zm3.97-4H29.04a.715.715,0,0,0,0,1.43h11.7A.715.715,0,0,0,40.74,18.01Zm0,0H29.04a.715.715,0,0,0,0,1.43h11.7A.715.715,0,0,0,40.74,18.01Zm-3.97,4H29.04a.71507.71507,0,0,0,0,1.43h7.73A.71507.71507,0,0,0,36.77,22.01ZM26.25,18.49l-.98.66a2.15509,2.15509,0,0,0-2.15-2.31h-3.5a2.13605,2.13605,0,0,0-2.14,2.14v3.5a2.14246,2.14246,0,0,0,2.14,2.14h3.5a2.14461,2.14461,0,0,0,2.15-2.14V20.87l1.77-1.18A.71856.71856,0,0,0,26.25,18.49Zm-2.41,1.62L22.47,21.02l-.9-1.71a.71575.71575,0,0,0-1.27.66l1.27,2.42a.74276.74276,0,0,0,.46.35c.46.18,1.23-.58,1.81-.91v.65a.71493.71493,0,0,1-.72.71h-3.5a.71275.71275,0,0,1-.71-.71v-3.5a.71488.71488,0,0,1,.71-.72h3.5a.717.717,0,0,1,.72.72Zm1.65,9.18H18.87a.7101.7101,0,0,0,0,1.42h6.62A.71.71,0,0,0,25.49,29.29Zm-.57,11.27H18.87a.70633.70633,0,0,0-.71.71.71487.71487,0,0,0,.71.72h6.05A.71507.71507,0,0,0,24.92,40.56Zm-1.68-7.27H18.87a.71.71,0,1,0,0,1.42h4.37a.71006.71006,0,1,0,0-1.42Zm-.37,11.27h-4a.715.715,0,0,0,0,1.43h4a.715.715,0,1,0,0-1.43Zm0,0h-4a.715.715,0,0,0,0,1.43h4a.715.715,0,1,0,0-1.43Zm.37-11.27H18.87a.71.71,0,1,0,0,1.42h4.37a.71006.71006,0,1,0,0-1.42Zm1.68,7.27H18.87a.70633.70633,0,0,0-.71.71.71487.71487,0,0,0,.71.72h6.05A.71507.71507,0,0,0,24.92,40.56Zm.57-11.27H18.87a.7101.7101,0,0,0,0,1.42h6.62A.71.71,0,0,0,25.49,29.29Zm.76-10.8-.98.66a2.15509,2.15509,0,0,0-2.15-2.31h-3.5a2.13605,2.13605,0,0,0-2.14,2.14v3.5a2.14246,2.14246,0,0,0,2.14,2.14h3.5a2.14461,2.14461,0,0,0,2.15-2.14V20.87l1.77-1.18A.71856.71856,0,0,0,26.25,18.49Zm-2.41,1.62L22.47,21.02l-.9-1.71a.71575.71575,0,0,0-1.27.66l1.27,2.42a.74276.74276,0,0,0,.46.35c.46.18,1.23-.58,1.81-.91v.65a.71493.71493,0,0,1-.72.71h-3.5a.71275.71275,0,0,1-.71-.71v-3.5a.71488.71488,0,0,1,.71-.72h3.5a.717.717,0,0,1,.72.72Zm12.93,1.9H29.04a.71507.71507,0,0,0,0,1.43h7.73A.71507.71507,0,0,0,36.77,22.01Zm3.97-4H29.04a.715.715,0,0,0,0,1.43h11.7A.715.715,0,0,0,40.74,18.01Zm0,0H29.04a.715.715,0,0,0,0,1.43h11.7A.715.715,0,0,0,40.74,18.01Zm-3.97,4H29.04a.71507.71507,0,0,0,0,1.43h7.73A.71507.71507,0,0,0,36.77,22.01ZM26.25,18.49l-.98.66a2.15509,2.15509,0,0,0-2.15-2.31h-3.5a2.13605,2.13605,0,0,0-2.14,2.14v3.5a2.14246,2.14246,0,0,0,2.14,2.14h3.5a2.14461,2.14461,0,0,0,2.15-2.14V20.87l1.77-1.18A.71856.71856,0,0,0,26.25,18.49Zm-2.41,1.62L22.47,21.02l-.9-1.71a.71575.71575,0,0,0-1.27.66l1.27,2.42a.74276.74276,0,0,0,.46.35c.46.18,1.23-.58,1.81-.91v.65a.71493.71493,0,0,1-.72.71h-3.5a.71275.71275,0,0,1-.71-.71v-3.5a.71488.71488,0,0,1,.71-.72h3.5a.717.717,0,0,1,.72.72Zm1.65,9.18H18.87a.7101.7101,0,0,0,0,1.42h6.62A.71.71,0,0,0,25.49,29.29Zm-.57,11.27H18.87a.70633.70633,0,0,0-.71.71.71487.71487,0,0,0,.71.72h6.05A.71507.71507,0,0,0,24.92,40.56Zm-6.05-5.85h4.37a.71006.71006,0,1,0,0-1.42H18.87a.71.71,0,1,0,0,1.42Zm4,9.85h-4a.715.715,0,0,0,0,1.43h4a.715.715,0,1,0,0-1.43ZM32,0A32,32,0,1,0,64,32,32.004,32.004,0,0,0,32,0Zm8.67,52H18.81a3.57218,3.57218,0,0,1-3.57-3.57V15.57A3.57214,3.57214,0,0,1,18.81,12H40.67a3.5721,3.5721,0,0,1,3.57,3.57V40.34a4.3769,4.3769,0,0,0-1.43-.92V36.89c.03-8.47-10.78-12.27-16.08-5.66a9.05986,9.05986,0,0,0,7.04,14.69,8.92606,8.92606,0,0,0,4.27-1.07,2.53475,2.53475,0,0,0,.78,1.04c.8.66,4.34,3.49,5.07,4.08A3.57488,3.57488,0,0,1,40.67,52Zm4.13-3.13-5.09-4.08a1.1094,1.1094,0,0,1-.17-1.55l.39-.49s-.69-.56-.7-.56c-4.36,4.59-12.43,1.84-13.01-4.48-.81-6.64,7.15-10.99,12.32-6.75a7.64266,7.64266,0,0,1,1.59,10.12l.69.56.4-.49a1.10462,1.10462,0,0,1,1.54-.17l5.09,4.09A2.43644,2.43644,0,0,1,44.8,48.87ZM29.04,19.44h11.7a.715.715,0,0,0,0-1.43H29.04A.715.715,0,0,0,29.04,19.44Zm7.73,2.57H29.04a.71507.71507,0,0,0,0,1.43h7.73A.71507.71507,0,0,0,36.77,22.01ZM23.12,24.62a2.14461,2.14461,0,0,0,2.15-2.14V20.87l1.77-1.18a.71856.71856,0,0,0-.79-1.2l-.98.66a2.15509,2.15509,0,0,0-2.15-2.31h-3.5a2.13605,2.13605,0,0,0-2.14,2.14v3.5a2.14246,2.14246,0,0,0,2.14,2.14Zm-4.21-2.14v-3.5a.71488.71488,0,0,1,.71-.72h3.5a.717.717,0,0,1,.72.72v1.13L22.47,21.02l-.9-1.71a.71575.71575,0,0,0-1.27.66l1.27,2.42a.74276.74276,0,0,0,.46.35c.46.18,1.23-.58,1.81-.91v.65a.71493.71493,0,0,1-.72.71h-3.5A.71275.71275,0,0,1,18.91,22.48Zm6.58,6.81H18.87a.7101.7101,0,0,0,0,1.42h6.62A.71.71,0,0,0,25.49,29.29Zm-.57,11.27H18.87a.70633.70633,0,0,0-.71.71.71487.71487,0,0,0,.71.72h6.05A.71507.71507,0,0,0,24.92,40.56Zm-6.05-7.27a.71.71,0,1,0,0,1.42h4.37a.71006.71006,0,1,0,0-1.42Zm4,11.27h-4a.715.715,0,0,0,0,1.43h4a.715.715,0,1,0,0-1.43Zm0,0h-4a.715.715,0,0,0,0,1.43h4a.715.715,0,1,0,0-1.43Zm.37-11.27H18.87a.71.71,0,1,0,0,1.42h4.37a.71006.71006,0,1,0,0-1.42Zm1.68,7.27H18.87a.70633.70633,0,0,0-.71.71.71487.71487,0,0,0,.71.72h6.05A.71507.71507,0,0,0,24.92,40.56Zm.57-11.27H18.87a.7101.7101,0,0,0,0,1.42h6.62A.71.71,0,0,0,25.49,29.29Zm.76-10.8-.98.66a2.15509,2.15509,0,0,0-2.15-2.31h-3.5a2.13605,2.13605,0,0,0-2.14,2.14v3.5a2.14246,2.14246,0,0,0,2.14,2.14h3.5a2.14461,2.14461,0,0,0,2.15-2.14V20.87l1.77-1.18A.71856.71856,0,0,0,26.25,18.49Zm-2.41,1.62L22.47,21.02l-.9-1.71a.71575.71575,0,0,0-1.27.66l1.27,2.42a.74276.74276,0,0,0,.46.35c.46.18,1.23-.58,1.81-.91v.65a.71493.71493,0,0,1-.72.71h-3.5a.71275.71275,0,0,1-.71-.71v-3.5a.71488.71488,0,0,1,.71-.72h3.5a.717.717,0,0,1,.72.72Zm12.93,1.9H29.04a.71507.71507,0,0,0,0,1.43h7.73A.71507.71507,0,0,0,36.77,22.01Zm3.97-4H29.04a.715.715,0,0,0,0,1.43h11.7A.715.715,0,0,0,40.74,18.01Zm0,0H29.04a.715.715,0,0,0,0,1.43h11.7A.715.715,0,0,0,40.74,18.01Zm-3.97,4H29.04a.71507.71507,0,0,0,0,1.43h7.73A.71507.71507,0,0,0,36.77,22.01ZM26.25,18.49l-.98.66a2.15509,2.15509,0,0,0-2.15-2.31h-3.5a2.13605,2.13605,0,0,0-2.14,2.14v3.5a2.14246,2.14246,0,0,0,2.14,2.14h3.5a2.14461,2.14461,0,0,0,2.15-2.14V20.87l1.77-1.18A.71856.71856,0,0,0,26.25,18.49Zm-2.41,1.62L22.47,21.02l-.9-1.71a.71575.71575,0,0,0-1.27.66l1.27,2.42a.74276.74276,0,0,0,.46.35c.46.18,1.23-.58,1.81-.91v.65a.71493.71493,0,0,1-.72.71h-3.5a.71275.71275,0,0,1-.71-.71v-3.5a.71488.71488,0,0,1,.71-.72h3.5a.717.717,0,0,1,.72.72Zm1.65,9.18H18.87a.7101.7101,0,0,0,0,1.42h6.62A.71.71,0,0,0,25.49,29.29Zm-.57,11.27H18.87a.70633.70633,0,0,0-.71.71.71487.71487,0,0,0,.71.72h6.05A.71507.71507,0,0,0,24.92,40.56Zm-1.68-7.27H18.87a.71.71,0,1,0,0,1.42h4.37a.71006.71006,0,1,0,0-1.42Zm-.37,11.27h-4a.715.715,0,0,0,0,1.43h4a.715.715,0,1,0,0-1.43Zm0,0h-4a.715.715,0,0,0,0,1.43h4a.715.715,0,1,0,0-1.43Zm.37-11.27H18.87a.71.71,0,1,0,0,1.42h4.37a.71006.71006,0,1,0,0-1.42Zm1.68,7.27H18.87a.70633.70633,0,0,0-.71.71.71487.71487,0,0,0,.71.72h6.05A.71507.71507,0,0,0,24.92,40.56Zm.57-11.27H18.87a.7101.7101,0,0,0,0,1.42h6.62A.71.71,0,0,0,25.49,29.29Zm.76-10.8-.98.66a2.15509,2.15509,0,0,0-2.15-2.31h-3.5a2.13605,2.13605,0,0,0-2.14,2.14v3.5a2.14246,2.14246,0,0,0,2.14,2.14h3.5a2.14461,2.14461,0,0,0,2.15-2.14V20.87l1.77-1.18A.71856.71856,0,0,0,26.25,18.49Zm-2.41,1.62L22.47,21.02l-.9-1.71a.71575.71575,0,0,0-1.27.66l1.27,2.42a.74276.74276,0,0,0,.46.35c.46.18,1.23-.58,1.81-.91v.65a.71493.71493,0,0,1-.72.71h-3.5a.71275.71275,0,0,1-.71-.71v-3.5a.71488.71488,0,0,1,.71-.72h3.5a.717.717,0,0,1,.72.72Zm12.93,1.9H29.04a.71507.71507,0,0,0,0,1.43h7.73A.71507.71507,0,0,0,36.77,22.01Zm3.97-4H29.04a.715.715,0,0,0,0,1.43h11.7A.715.715,0,0,0,40.74,18.01Zm0,0H29.04a.715.715,0,0,0,0,1.43h11.7A.715.715,0,0,0,40.74,18.01Zm-3.97,4H29.04a.71507.71507,0,0,0,0,1.43h7.73A.71507.71507,0,0,0,36.77,22.01ZM26.25,18.49l-.98.66a2.15509,2.15509,0,0,0-2.15-2.31h-3.5a2.13605,2.13605,0,0,0-2.14,2.14v3.5a2.14246,2.14246,0,0,0,2.14,2.14h3.5a2.14461,2.14461,0,0,0,2.15-2.14V20.87l1.77-1.18A.71856.71856,0,0,0,26.25,18.49Zm-2.41,1.62L22.47,21.02l-.9-1.71a.71575.71575,0,0,0-1.27.66l1.27,2.42a.74276.74276,0,0,0,.46.35c.46.18,1.23-.58,1.81-.91v.65a.71493.71493,0,0,1-.72.71h-3.5a.71275.71275,0,0,1-.71-.71v-3.5a.71488.71488,0,0,1,.71-.72h3.5a.717.717,0,0,1,.72.72Zm1.65,9.18H18.87a.7101.7101,0,0,0,0,1.42h6.62A.71.71,0,0,0,25.49,29.29Zm-.57,11.27H18.87a.70633.70633,0,0,0-.71.71.71487.71487,0,0,0,.71.72h6.05A.71507.71507,0,0,0,24.92,40.56Zm-1.68-7.27H18.87a.71.71,0,1,0,0,1.42h4.37a.71006.71006,0,1,0,0-1.42Zm-.37,11.27h-4a.715.715,0,0,0,0,1.43h4a.715.715,0,1,0,0-1.43Zm0,0h-4a.715.715,0,0,0,0,1.43h4a.715.715,0,1,0,0-1.43Zm.37-11.27H18.87a.71.71,0,1,0,0,1.42h4.37a.71006.71006,0,1,0,0-1.42Zm1.68,7.27H18.87a.70633.70633,0,0,0-.71.71.71487.71487,0,0,0,.71.72h6.05A.71507.71507,0,0,0,24.92,40.56Zm.57-11.27H18.87a.7101.7101,0,0,0,0,1.42h6.62A.71.71,0,0,0,25.49,29.29Zm.76-10.8-.98.66a2.15509,2.15509,0,0,0-2.15-2.31h-3.5a2.13605,2.13605,0,0,0-2.14,2.14v3.5a2.14246,2.14246,0,0,0,2.14,2.14h3.5a2.14461,2.14461,0,0,0,2.15-2.14V20.87l1.77-1.18A.71856.71856,0,0,0,26.25,18.49Zm-2.41,1.62L22.47,21.02l-.9-1.71a.71575.71575,0,0,0-1.27.66l1.27,2.42a.74276.74276,0,0,0,.46.35c.46.18,1.23-.58,1.81-.91v.65a.71493.71493,0,0,1-.72.71h-3.5a.71275.71275,0,0,1-.71-.71v-3.5a.71488.71488,0,0,1,.71-.72h3.5a.717.717,0,0,1,.72.72Zm12.93,1.9H29.04a.71507.71507,0,0,0,0,1.43h7.73A.71507.71507,0,0,0,36.77,22.01Zm3.97-4H29.04a.715.715,0,0,0,0,1.43h11.7A.715.715,0,0,0,40.74,18.01Zm0,0H29.04a.715.715,0,0,0,0,1.43h11.7A.715.715,0,0,0,40.74,18.01Zm-3.97,4H29.04a.71507.71507,0,0,0,0,1.43h7.73A.71507.71507,0,0,0,36.77,22.01ZM26.25,18.49l-.98.66a2.15509,2.15509,0,0,0-2.15-2.31h-3.5a2.13605,2.13605,0,0,0-2.14,2.14v3.5a2.14246,2.14246,0,0,0,2.14,2.14h3.5a2.14461,2.14461,0,0,0,2.15-2.14V20.87l1.77-1.18A.71856.71856,0,0,0,26.25,18.49Zm-2.41,1.62L22.47,21.02l-.9-1.71a.71575.71575,0,0,0-1.27.66l1.27,2.42a.74276.74276,0,0,0,.46.35c.46.18,1.23-.58,1.81-.91v.65a.71493.71493,0,0,1-.72.71h-3.5a.71275.71275,0,0,1-.71-.71v-3.5a.71488.71488,0,0,1,.71-.72h3.5a.717.717,0,0,1,.72.72Zm1.65,9.18H18.87a.7101.7101,0,0,0,0,1.42h6.62A.71.71,0,0,0,25.49,29.29Zm-.57,11.27H18.87a.70633.70633,0,0,0-.71.71.71487.71487,0,0,0,.71.72h6.05A.71507.71507,0,0,0,24.92,40.56Zm-1.68-7.27H18.87a.71.71,0,1,0,0,1.42h4.37a.71006.71006,0,1,0,0-1.42Zm-.37,11.27h-4a.715.715,0,0,0,0,1.43h4a.715.715,0,1,0,0-1.43Zm0,0h-4a.715.715,0,0,0,0,1.43h4a.715.715,0,1,0,0-1.43Zm.37-11.27H18.87a.71.71,0,1,0,0,1.42h4.37a.71006.71006,0,1,0,0-1.42Zm1.68,7.27H18.87a.70633.70633,0,0,0-.71.71.71487.71487,0,0,0,.71.72h6.05A.71507.71507,0,0,0,24.92,40.56Zm.57-11.27H18.87a.7101.7101,0,0,0,0,1.42h6.62A.71.71,0,0,0,25.49,29.29Zm.76-10.8-.98.66a2.15509,2.15509,0,0,0-2.15-2.31h-3.5a2.13605,2.13605,0,0,0-2.14,2.14v3.5a2.14246,2.14246,0,0,0,2.14,2.14h3.5a2.14461,2.14461,0,0,0,2.15-2.14V20.87l1.77-1.18A.71856.71856,0,0,0,26.25,18.49Zm-2.41,1.62L22.47,21.02l-.9-1.71a.71575.71575,0,0,0-1.27.66l1.27,2.42a.74276.74276,0,0,0,.46.35c.46.18,1.23-.58,1.81-.91v.65a.71493.71493,0,0,1-.72.71h-3.5a.71275.71275,0,0,1-.71-.71v-3.5a.71488.71488,0,0,1,.71-.72h3.5a.717.717,0,0,1,.72.72Zm12.93,1.9H29.04a.71507.71507,0,0,0,0,1.43h7.73A.71507.71507,0,0,0,36.77,22.01Zm3.97-4H29.04a.715.715,0,0,0,0,1.43h11.7A.715.715,0,0,0,40.74,18.01Zm0,0H29.04a.715.715,0,0,0,0,1.43h11.7A.715.715,0,0,0,40.74,18.01Zm-3.97,4H29.04a.71507.71507,0,0,0,0,1.43h7.73A.71507.71507,0,0,0,36.77,22.01ZM26.25,18.49l-.98.66a2.15509,2.15509,0,0,0-2.15-2.31h-3.5a2.13605,2.13605,0,0,0-2.14,2.14v3.5a2.14246,2.14246,0,0,0,2.14,2.14h3.5a2.14461,2.14461,0,0,0,2.15-2.14V20.87l1.77-1.18A.71856.71856,0,0,0,26.25,18.49Zm-2.41,1.62L22.47,21.02l-.9-1.71a.71575.71575,0,0,0-1.27.66l1.27,2.42a.74276.74276,0,0,0,.46.35c.46.18,1.23-.58,1.81-.91v.65a.71493.71493,0,0,1-.72.71h-3.5a.71275.71275,0,0,1-.71-.71v-3.5a.71488.71488,0,0,1,.71-.72h3.5a.717.717,0,0,1,.72.72Zm1.65,9.18H18.87a.7101.7101,0,0,0,0,1.42h6.62A.71.71,0,0,0,25.49,29.29Zm-.57,11.27H18.87a.70633.70633,0,0,0-.71.71.71487.71487,0,0,0,.71.72h6.05A.71507.71507,0,0,0,24.92,40.56Zm-1.68-7.27H18.87a.71.71,0,1,0,0,1.42h4.37a.71006.71006,0,1,0,0-1.42Zm-.37,11.27h-4a.715.715,0,0,0,0,1.43h4a.715.715,0,1,0,0-1.43Zm0,0h-4a.715.715,0,0,0,0,1.43h4a.715.715,0,1,0,0-1.43Zm.37-11.27H18.87a.71.71,0,1,0,0,1.42h4.37a.71006.71006,0,1,0,0-1.42Zm1.68,7.27H18.87a.70633.70633,0,0,0-.71.71.71487.71487,0,0,0,.71.72h6.05A.71507.71507,0,0,0,24.92,40.56Zm.57-11.27H18.87a.7101.7101,0,0,0,0,1.42h6.62A.71.71,0,0,0,25.49,29.29Zm.76-10.8-.98.66a2.15509,2.15509,0,0,0-2.15-2.31h-3.5a2.13605,2.13605,0,0,0-2.14,2.14v3.5a2.14246,2.14246,0,0,0,2.14,2.14h3.5a2.14461,2.14461,0,0,0,2.15-2.14V20.87l1.77-1.18A.71856.71856,0,0,0,26.25,18.49Zm-2.41,1.62L22.47,21.02l-.9-1.71a.71575.71575,0,0,0-1.27.66l1.27,2.42a.74276.74276,0,0,0,.46.35c.46.18,1.23-.58,1.81-.91v.65a.71493.71493,0,0,1-.72.71h-3.5a.71275.71275,0,0,1-.71-.71v-3.5a.71488.71488,0,0,1,.71-.72h3.5a.717.717,0,0,1,.72.72Zm12.93,1.9H29.04a.71507.71507,0,0,0,0,1.43h7.73A.71507.71507,0,0,0,36.77,22.01Zm3.97-4H29.04a.715.715,0,0,0,0,1.43h11.7A.715.715,0,0,0,40.74,18.01Zm0,0H29.04a.715.715,0,0,0,0,1.43h11.7A.715.715,0,0,0,40.74,18.01Zm-3.97,4H29.04a.71507.71507,0,0,0,0,1.43h7.73A.71507.71507,0,0,0,36.77,22.01ZM26.25,18.49l-.98.66a2.15509,2.15509,0,0,0-2.15-2.31h-3.5a2.13605,2.13605,0,0,0-2.14,2.14v3.5a2.14246,2.14246,0,0,0,2.14,2.14h3.5a2.14461,2.14461,0,0,0,2.15-2.14V20.87l1.77-1.18A.71856.71856,0,0,0,26.25,18.49Zm-2.41,1.62L22.47,21.02l-.9-1.71a.71575.71575,0,0,0-1.27.66l1.27,2.42a.74276.74276,0,0,0,.46.35c.46.18,1.23-.58,1.81-.91v.65a.71493.71493,0,0,1-.72.71h-3.5a.71275.71275,0,0,1-.71-.71v-3.5a.71488.71488,0,0,1,.71-.72h3.5a.717.717,0,0,1,.72.72Zm1.65,9.18H18.87a.7101.7101,0,0,0,0,1.42h6.62A.71.71,0,0,0,25.49,29.29Zm-.57,11.27H18.87a.70633.70633,0,0,0-.71.71.71487.71487,0,0,0,.71.72h6.05A.71507.71507,0,0,0,24.92,40.56Zm-1.68-7.27H18.87a.71.71,0,1,0,0,1.42h4.37a.71006.71006,0,1,0,0-1.42Zm-.37,11.27h-4a.715.715,0,0,0,0,1.43h4a.715.715,0,1,0,0-1.43Zm0,0h-4a.715.715,0,0,0,0,1.43h4a.715.715,0,1,0,0-1.43Zm.37-11.27H18.87a.71.71,0,1,0,0,1.42h4.37a.71006.71006,0,1,0,0-1.42Zm1.68,7.27H18.87a.70633.70633,0,0,0-.71.71.71487.71487,0,0,0,.71.72h6.05A.71507.71507,0,0,0,24.92,40.56Zm.57-11.27H18.87a.7101.7101,0,0,0,0,1.42h6.62A.71.71,0,0,0,25.49,29.29Zm.76-10.8-.98.66a2.15509,2.15509,0,0,0-2.15-2.31h-3.5a2.13605,2.13605,0,0,0-2.14,2.14v3.5a2.14246,2.14246,0,0,0,2.14,2.14h3.5a2.14461,2.14461,0,0,0,2.15-2.14V20.87l1.77-1.18A.71856.71856,0,0,0,26.25,18.49Zm-2.41,1.62L22.47,21.02l-.9-1.71a.71575.71575,0,0,0-1.27.66l1.27,2.42a.74276.74276,0,0,0,.46.35c.46.18,1.23-.58,1.81-.91v.65a.71493.71493,0,0,1-.72.71h-3.5a.71275.71275,0,0,1-.71-.71v-3.5a.71488.71488,0,0,1,.71-.72h3.5a.717.717,0,0,1,.72.72Zm12.93,1.9H29.04a.71507.71507,0,0,0,0,1.43h7.73A.71507.71507,0,0,0,36.77,22.01Zm3.97-4H29.04a.715.715,0,0,0,0,1.43h11.7A.715.715,0,0,0,40.74,18.01Zm0,0H29.04a.715.715,0,0,0,0,1.43h11.7A.715.715,0,0,0,40.74,18.01Zm-3.97,4H29.04a.71507.71507,0,0,0,0,1.43h7.73A.71507.71507,0,0,0,36.77,22.01ZM26.25,18.49l-.98.66a2.15509,2.15509,0,0,0-2.15-2.31h-3.5a2.13605,2.13605,0,0,0-2.14,2.14v3.5a2.14246,2.14246,0,0,0,2.14,2.14h3.5a2.14461,2.14461,0,0,0,2.15-2.14V20.87l1.77-1.18A.71856.71856,0,0,0,26.25,18.49Zm-2.41,1.62L22.47,21.02l-.9-1.71a.71575.71575,0,0,0-1.27.66l1.27,2.42a.74276.74276,0,0,0,.46.35c.46.18,1.23-.58,1.81-.91v.65a.71493.71493,0,0,1-.72.71h-3.5a.71275.71275,0,0,1-.71-.71v-3.5a.71488.71488,0,0,1,.71-.72h3.5a.717.717,0,0,1,.72.72Zm1.65,9.18H18.87a.7101.7101,0,0,0,0,1.42h6.62A.71.71,0,0,0,25.49,29.29Zm-.57,11.27H18.87a.70633.70633,0,0,0-.71.71.71487.71487,0,0,0,.71.72h6.05A.71507.71507,0,0,0,24.92,40.56Zm-1.68-7.27H18.87a.71.71,0,1,0,0,1.42h4.37a.71006.71006,0,1,0,0-1.42Zm-.37,11.27h-4a.715.715,0,0,0,0,1.43h4a.715.715,0,1,0,0-1.43Z" fill="#ffffff"/></g></svg>